<?xml version="1.0" encoding="UTF-8" standalone="no"?>
<!-- Created with Inkscape (http://www.inkscape.org/) -->

<svg
   version="1.1"
   id="svg9"
   width="2666.6667"
   height="2666.6667"
   viewBox="0 0 2666.6667 2666.6667"
   sodipodi:docname="logo-aj2.svg"
   inkscape:version="1.1 (c68e22c387, 2021-05-23)"
   xmlns:inkscape="http://www.inkscape.org/namespaces/inkscape"
   xmlns:sodipodi="http://sodipodi.sourceforge.net/DTD/sodipodi-0.dtd"
   xmlns="http://www.w3.org/2000/svg"
   xmlns:svg="http://www.w3.org/2000/svg">
  <defs
     id="defs13" />
  <sodipodi:namedview
     id="namedview11"
     pagecolor="#ffffff"
     bordercolor="#666666"
     borderopacity="1.0"
     inkscape:pageshadow="2"
     inkscape:pageopacity="0.0"
     inkscape:pagecheckerboard="0"
     showgrid="false"
     inkscape:zoom="0.29999999"
     inkscape:cx="426.66668"
     inkscape:cy="1330"
     inkscape:window-width="1920"
     inkscape:window-height="1009"
     inkscape:window-x="-8"
     inkscape:window-y="-8"
     inkscape:window-maximized="1"
     inkscape:current-layer="g15" />
  <g
     inkscape:groupmode="layer"
     inkscape:label="Image"
     id="g15">
    <path
       style="fill:#000000;stroke-width:1.33094"
       d="m 333.33332,2038.6078 c -15.7583,-1.391 -40.9424,-5.1293 -44,-6.5314 -1.4666,-0.6724 -4.7666,-1.5953 -7.3333,-2.0506 -13.5534,-2.4042 -39.668,-14.2467 -50.6667,-22.9762 -8.1484,-6.4672 -18.4597,-17.3504 -20.9587,-22.1209 -1.1296,-2.1565 -2.876,-4.7401 -3.8808,-5.7413 -1.005,-1.0013 -1.8272,-2.4085 -1.8272,-3.1272 0,-0.7186 -1.1809,-3.8896 -2.6243,-7.0467 -1.4434,-3.1571 -3.0253,-8.3555 -3.5154,-11.552 -0.49,-3.1965 -1.3725,-6.4269 -1.9609,-7.1789 -0.5885,-0.7518 -1.4506,-7.3281 -1.9158,-14.614 -0.7919,-12.4018 -0.4055,-16.6954 3.3213,-36.9053 1.4239,-7.7214 7.5497,-26.9825 9.3771,-29.484 0.5338,-0.7308 1.6952,-3.5706 2.581,-6.3108 0.8858,-2.7401 2.1163,-4.982 2.7345,-4.982 0.6182,0 1.5178,-1.7866 1.9992,-3.9704 0.4813,-2.1837 1.4381,-4.3171 2.1261,-4.7408 0.6881,-0.4237 2.1652,-2.9505 3.2825,-5.615 1.1173,-2.6648 2.4599,-5.1647 2.9835,-5.5557 0.5237,-0.3909 2.7425,-3.401 4.9308,-6.6892 15.5456,-23.3587 46.8824,-56.641 73.8034,-78.3849 3.1664,-2.5575 6.8109,-5.5983 8.0988,-6.7574 1.288,-1.1592 9.79,-7.5799 18.8934,-14.2683 9.1033,-6.6884 17.5019,-13.0636 18.6634,-14.1673 1.1615,-1.1036 2.5371,-2.0066 3.0569,-2.0066 0.5198,0 4.0695,-2.2827 7.8882,-5.0728 3.8186,-2.79 7.993,-5.4616 9.2764,-5.9368 1.2833,-0.4753 2.3333,-1.4806 2.3333,-2.2342 0,-0.7537 0.6933,-1.3703 1.5408,-1.3703 0.8474,0 3.5074,-1.4946 5.911,-3.3214 2.4037,-1.8268 4.6837,-3.3214 5.0667,-3.3214 0.5982,0 5.091,-2.8203 12.8148,-8.0441 1.1,-0.744 3.3175,-2.0783 4.9277,-2.9649 1.6102,-0.8868 9.0678,-5.1994 16.5724,-9.5836 18.22,-10.6441 32.8061,-18.8381 38.4999,-21.6276 2.5667,-1.2576 4.9667,-2.5853 5.3334,-2.9507 0.3666,-0.3654 3.0666,-1.9072 6,-3.4264 2.9333,-1.519 9.5333,-5.06 14.6666,-7.8689 28.0037,-15.3226 144.2122,-72.4038 147.4031,-72.4038 0.695,0 1.2636,-0.5979 1.2636,-1.3285 0,-0.7308 0.7105,-1.3287 1.579,-1.3287 0.8685,0 4.1685,-1.1957 7.3334,-2.657 10.1162,-4.6714 16.8406,-7.6294 27.0876,-11.9158 13.1545,-5.5027 14.0457,-5.8876 22.9174,-9.8982 4.1713,-1.8858 7.9806,-3.4286 8.4652,-3.4286 0.4846,0 2.7717,-0.8701 5.0825,-1.9335 2.3109,-1.0634 6.9016,-2.9084 10.2016,-4.1001 14.6642,-5.2953 16.9035,-6.1511 20.8681,-7.9757 2.3109,-1.0634 4.6638,-1.9334 5.2287,-1.9334 0.9706,0 15.469,-5.4266 21.2365,-7.9486 1.4667,-0.6414 5.0667,-1.8837 8,-2.7605 2.9333,-0.8767 5.9333,-2.0371 6.6667,-2.5785 0.7333,-0.5412 4.48329,-1.7721 8.33329,-2.735 3.85,-0.963 7.00001,-2.1692 7.00001,-2.6806 0,-0.5111 2.25,-1.3491 5,-1.8621 2.75,-0.5129 7.51708,-2.0741 10.59352,-3.4692 3.07642,-1.3951 6.28574,-2.5366 7.13182,-2.5366 0.84607,0 3.42899,-0.8324 5.73982,-1.8497 2.31082,-1.0175 7.2015,-2.8317 10.86817,-4.0315 23.86979,-7.8114 35.00341,-11.5948 37.33333,-12.6866 1.46667,-0.6874 5.36667,-1.9309 8.66667,-2.7635 3.3,-0.8328 6.6,-1.9844 7.33333,-2.5592 0.73334,-0.5749 3.43334,-1.4763 6,-2.0031 2.56667,-0.5268 6.46667,-1.7182 8.66667,-2.6477 5.69524,-2.406 41.65559,-13.9725 43.44075,-13.9725 0.81926,0 3.38025,-0.8334 5.69108,-1.8519 3.58856,-1.5818 18.77237,-6.3641 30.20149,-9.5122 1.8333,-0.505 3.9333,-1.3646 4.6667,-1.9101 0.7333,-0.5457 4.6333,-1.7605 8.6666,-2.6997 4.0334,-0.9393 8.2334,-2.17 9.3334,-2.7346 1.10003,-0.5647 7.40003,-2.6094 14.00003,-4.5438 6.6,-1.9344 13.2,-4.0497 14.6666,-4.7008 1.4667,-0.651 6.5667,-2.1546 11.3334,-3.3411 4.7666,-1.1866 9.2666,-2.637 10,-3.223 0.7333,-0.5862 4.7728,-1.7688 8.9767,-2.6278 4.2039,-0.8591 7.9473,-2.0518 8.3186,-2.6505 0.3714,-0.5988 2.9319,-1.5095 5.6899,-2.0239 4.3425,-0.8099 18.2662,-4.8227 24.3481,-7.017 1.1,-0.3969 2.6,-0.8991 3.3333,-1.116 0.7334,-0.217 4.3334,-1.2971 8,-2.4002 3.6667,-1.1032 11.1667,-3.2482 16.6667,-4.7668 5.5,-1.5185 10.9761,-3.2965 12.1692,-3.951 1.1931,-0.6545 4.4931,-1.6103 7.3333,-2.124 2.8403,-0.5137 7.2642,-1.6924 9.8308,-2.6191 2.5667,-0.9269 10.0667,-3.2921 16.6667,-5.2561 13.268,-3.948 25.1428,-8.1557 29.5247,-10.4614 1.5719,-0.827 14.3543,-15.735 28.4053,-33.1288 14.051,-17.3938 26.565,-32.7455 27.8087,-34.1151 1.2437,-1.3696 2.8667,-3.2804 3.6064,-4.2461 0.7399,-0.9657 3.4068,-4.4462 5.9267,-7.7344 2.5198,-3.2882 5.5145,-7.0174 6.6549,-8.287 1.1403,-1.2697 3.0248,-3.3622 4.1876,-4.65 1.7531,-1.9415 40.87,-50.3111 62.3097,-77.0485 3.1666,-3.9488 6.7666,-8.2919 8,-9.6514 1.2335,-1.3594 2.8443,-3.2617 3.5796,-4.2275 1.6032,-2.1054 14.6679,-18.2153 17.01,-20.9746 0.9092,-1.0711 11.5531,-14.2281 23.6531,-29.2377 12.1,-15.0097 23.0821,-28.4817 24.4048,-29.938 1.3225,-1.4561 5.2225,-6.2329 8.6667,-10.6149 3.444,-4.3821 6.8618,-8.6348 7.5952,-9.4506 8.1404,-9.0549 46.1189,-56.6414 45.61,-57.1484 -0.306,-0.3049 -5.5934,3.7971 -11.7498,9.1152 -6.1565,5.3183 -14.4936,12.316 -18.5269,15.5503 -4.0333,3.2344 -7.9333,6.5238 -8.6667,7.3098 -0.7333,0.7857 -6.4333,5.5804 -12.6666,10.6545 -13.7468,11.1903 -14.6282,11.9211 -18.0131,14.9358 -1.474,1.3126 -8.9728,7.4684 -16.6641,13.6794 -7.6912,6.2109 -17.6231,14.2819 -22.0706,17.9355 -4.4474,3.6535 -10.3593,8.4364 -13.1374,10.6285 -2.7782,2.1921 -5.877,4.7621 -6.8863,5.7112 -1.0095,0.9493 -10.3987,8.2322 -20.8652,16.1844 -10.4665,7.9523 -20.23,15.3887 -21.6967,16.5255 -14.251,11.0458 -59.148,41.3318 -72,48.569 -4.4,2.4776 -8.3,4.8554 -8.6666,5.2838 -0.3667,0.4285 -2.1667,1.5382 -4,2.4663 -1.8334,0.9278 -6.3334,3.4282 -10,5.5566 -7.7859,4.5193 -38.3377,19.7621 -48.0001,23.9481 -3.6666,1.5884 -8.4666,3.6636 -10.6666,4.6114 -7.241,3.1197 -18.5964,7.1807 -22.6667,8.1062 -2.2,0.5002 -4.6409,1.4078 -5.4243,2.0171 -0.7833,0.6091 -4.6833,1.7776 -8.6666,2.5966 -3.9833,0.8188 -9.6424,2.2714 -12.5758,3.2277 -2.9333,0.9562 -13.1333,2.4333 -22.6666,3.2822 -9.5334,0.8489 -18.2334,1.6416 -19.3334,1.7615 -6.7551,0.7363 -51.3774,-3.7876 -53.9623,-5.4707 -0.754,-0.491 -4.671,-1.5883 -8.70433,-2.4383 -18.3855,-3.8748 -45.32497,-16.6734 -61.06466,-29.0113 -7.74251,-6.0691 -25.75691,-24.0024 -29.21107,-29.0794 -2.04424,-3.0048 -4.0952,-5.7621 -4.55769,-6.1274 -1.69987,-1.3427 -11.48747,-20.7557 -13.06165,-25.9068 -0.89324,-2.9229 -2.15946,-6.51 -2.8138,-7.9714 -5.29866,-11.834 -5.31832,-65.4622 -0.0283,-77.0563 0.6668,-1.4614 1.93401,-5.9452 2.81603,-9.9642 0.882,-4.0188 2.0631,-7.9049 2.62466,-8.6355 0.56158,-0.7308 1.77796,-3.8695 2.70311,-6.975 0.92515,-3.1055 2.18712,-5.6464 2.80437,-5.6464 0.61726,0 1.12228,-0.8951 1.12228,-1.9892 0,-2.5424 8.09123,-19.7874 9.55963,-20.3748 0.60887,-0.2436 1.10704,-1.1679 1.10704,-2.0539 0,-0.8862 2.58779,-5.7933 5.75063,-10.905 3.16284,-5.1116 6.15436,-10.1658 6.64782,-11.2316 0.49346,-1.0658 1.87887,-3.283 3.07867,-4.9271 4.23251,-5.7998 0.40388,-2.8605 -11.24884,8.6357 -10.69439,10.5507 -32.05664,30.6596 -58.92443,55.4673 -9.76577,9.0168 -25.00165,22.7113 -37.30385,33.5296 -17.79675,15.6501 -21.46575,18.8581 -28.7332,25.1227 -21.2478,18.3154 -48.5397,40.491 -65.2668,53.0314 -8.4603,6.3428 -12.6924,9.4337 -15.346,11.2077 -1.6394,1.0961 -3.6734,2.5907 -4.52,3.3214 -4.9213,4.2475 -29.7289,20.5926 -31.2543,20.5926 -0.7283,0 -1.5241,0.493 -1.7686,1.0954 -0.381,0.9389 -31.2138,18.833 -32.4507,18.833 -0.2441,0 -6.1447,2.6903 -13.1125,5.9785 -6.9677,3.2882 -13.4965,5.9785 -14.5083,5.9785 -1.0118,0 -2.4096,0.5501 -3.1063,1.2225 -1.4397,1.3897 -14.6156,6.2053 -22.6,8.2602 -2.9333,0.7549 -6.5333,1.9296 -8,2.6103 -1.4666,0.6808 -6.8666,2.0896 -12,3.1307 -5.1333,1.0411 -11.7333,2.5026 -14.6666,3.2478 -4.8425,1.23 -39.2817,4.5996 -47.3334,4.631 -7.9451,0.031 -45.1816,-3.4328 -50.0215,-4.6532 -2.9215,-0.7367 -8.9118,-2.1527 -13.3118,-3.1468 -8.6125,-1.9457 -18.9088,-5.1461 -25.3333,-7.8744 -9.1264,-3.8756 -30.9953,-14.8199 -35.3334,-17.6827 -2.5666,-1.6939 -5.8174,-3.816 -7.2239,-4.716 -17.947,-11.4842 -52.7761,-46.312 -52.7761,-52.7742 0,-0.7371 -0.5506,-1.3401 -1.2235,-1.3401 -1.1984,0 -2.5408,-2.279 -9.6059,-16.3077 -7.8009,-15.4898 -13.2432,-31.6573 -15.9771,-47.463 -2.1528,-12.4461 -3.0276,-49.86 -1.3513,-57.7923 0.772,-3.6535 2.0984,-11.5859 2.9476,-17.6277 0.8491,-6.0418 2.0688,-11.3081 2.7104,-11.7032 0.6415,-0.3952 1.1665,-1.87 1.1665,-3.2773 0,-2.633 7.0508,-24.7343 9.2049,-28.8537 0.6641,-1.2698 4.2916,-8.58635 8.0612,-16.25875 8.9022,-18.1189 18.0187,-33.4649 23.6775,-39.8567 0.9703,-1.0961 4.4783,-5.58 7.7956,-9.9642 10.4959,-13.872 15.4889,-19.4398 33.3357,-37.1732 21.1074,-20.9733 24.2867,-23.8562 41.2584,-37.4131 11.1585,-8.9134 37.7849,-28.6063 46.8731,-34.6675 11.3452,-7.5665 32.7679,-21.2487 37.1269,-23.7123 1.4667,-0.8289 10.6326,-6.0979 20.3688,-11.7092 22.6407,-13.0482 37.4096,-20.9053 62.2979,-33.1426 34.0907,-16.762 42.7092,-20.8013 44.3831,-20.8013 0.8893,0 1.6169,-0.5979 1.6169,-1.3285 0,-0.7308 0.7106,-1.3287 1.5791,-1.3287 0.8684,0 4.0184,-1.1457 7,-2.5461 2.9815,-1.4004 12.0209,-5.3599 20.0876,-8.799 8.0667,-3.4389 17.1837,-7.3749 20.2602,-8.7464 3.0764,-1.3717 6.0764,-2.4975 6.6666,-2.502 0.5903,0 2.6652,-0.8359 4.611,-1.8475 1.9457,-1.0115 5.8457,-2.5892 8.6666,-3.5057 2.8209,-0.9166 5.4289,-2.0283 5.7956,-2.4704 0.6087,-0.7341 3.1323,-1.7286 19.3333,-7.6191 2.9334,-1.0666 7.224,-2.8092 9.5349,-3.8726 2.3108,-1.0635 5.0273,-1.9335 6.0366,-1.9335 1.0093,0 3.0187,-0.8075 4.4652,-1.7946 1.4465,-0.987 4.4092,-2.2265 6.5837,-2.7543 2.1746,-0.5277 6.3954,-2.0678 9.3796,-3.4225 2.9842,-1.3545 7.205,-2.8976 9.3796,-3.4287 2.17457,-0.5313 4.25376,-1.3733 4.62043,-1.8712 0.36666,-0.4978 3.06666,-1.5702 6,-2.3831 7.21629,-1.9999 20.39471,-6.6416 25.53484,-8.9939 2.31083,-1.0576 4.92015,-1.9228 5.79849,-1.9228 0.87835,0 3.48767,-0.823 5.7985,-1.829 2.31082,-1.006 9.6015,-3.467 16.2015,-5.4688 6.6,-2.0019 14.1,-4.4535 16.66667,-5.4479 2.56667,-0.9945 7.66667,-2.5059 11.33333,-3.3586 3.66667,-0.8527 7.26667,-1.9972 8,-2.5433 0.73334,-0.546 4.93334,-1.7203 9.33334,-2.6094 4.4,-0.889 8.6,-2.0601 9.33333,-2.6021 0.73333,-0.5422 5.23333,-1.7626 10,-2.7121 4.76667,-0.9494 9.26667,-2.1558 10,-2.6809 0.73333,-0.5251 5.53333,-1.7105 10.66667,-2.6344 5.13333,-0.9239 9.93333,-2.0471 10.66666,-2.496 3.02203,-1.8498 46.47719,-10.2235 66.66672,-12.8464 8.0666,-1.048 17.3666,-2.5878 20.6666,-3.4217 8.116,-2.051 79.7601,-3.1439 89.3334,-1.3628 15.2783,2.8425 26.1839,5.6945 31.4209,8.217 2.9816,1.4361 6.1316,2.6111 7,2.6111 0.8685,0 1.5791,0.5253 1.5791,1.1674 0,0.642 1.7683,1.8972 3.9296,2.7892 5.9764,2.4666 18.0822,15.0666 21.3513,22.2228 1.6006,3.5037 3.4735,7.4185 4.162,8.6996 2.8077,5.2245 4.0824,22.2898 2.5828,34.5792 -0.8135,6.6659 -1.9734,12.7465 -2.5777,13.5125 -0.6044,0.7659 -1.8645,4.6808 -2.8003,8.6997 -0.9359,4.0189 -2.3471,7.723 -3.136,8.2313 -0.789,0.5083 -1.0765,1.2808 -0.639,1.7167 0.7788,0.7761 9.4409,-9.6898 18.4045,-22.2371 2.4795,-3.4708 5.0065,-6.3106 5.6155,-6.3106 0.609,0 1.1073,-0.6382 1.1073,-1.4182 0,-0.78 2.6908,-4.8155 5.9795,-8.9678 3.2888,-4.1523 6.8754,-8.7453 7.9705,-10.2067 1.0949,-1.4614 4.6745,-6.2442 7.9545,-10.6285 8.5316,-11.404 23.7883,-31.2885 29.5611,-38.5281 1.1653,-1.4614 2.5797,-3.4562 3.1432,-4.4327 0.8435,-1.4618 3.8253,-1.5039 16.8745,-0.2382 8.7175,0.8456 17.05,2.2024 18.5167,3.0151 3.6823,2.0404 88.1811,2.9023 111.3333,1.1356 9.9,-0.7555 27.6,-2.2996 39.3334,-3.4313 11.7333,-1.1318 22.3784,-1.9013 23.6556,-1.7102 1.7846,0.267 0.3956,2.5318 -6,9.7827 -4.5772,5.1894 -11.3223,12.9373 -14.989,17.2176 -3.6666,4.2803 -7.8666,9.0396 -9.3333,10.5763 -1.4667,1.5366 -7.1667,8.1106 -12.6667,14.609 -5.5,6.4983 -11.8,13.7207 -14,16.0499 -2.2,2.329 -5.1645,5.6436 -6.5877,7.3657 -1.4232,1.7221 -7.0452,8.2129 -12.4933,14.4238 -5.4482,6.2111 -12.6838,14.5338 -16.079,18.495 -3.3953,3.9612 -7.0733,8.1658 -8.1733,9.3433 -2.4739,2.6486 -19.4937,22.1262 -27.8244,31.8425 -3.3965,3.9614 -7.3756,8.4809 -8.8423,10.043 -1.4666,1.5622 -5.9666,6.6847 -10,11.3833 -6.84,7.9684 -11.5065,13.3172 -18,20.6321 -1.4666,1.6522 -3.8312,4.3971 -5.2544,6.0997 -1.4232,1.7026 -7.0452,8.1774 -12.4933,14.3884 -5.4481,6.2109 -12.6837,14.4932 -16.0789,18.4048 -3.3954,3.9116 -7.3734,8.4505 -8.84,10.0864 -1.4667,1.636 -4.4174,5.0118 -6.557,7.5021 -2.1397,2.4902 -6.0397,6.952 -8.6666,9.9149 -2.6271,2.963 -7.7764,8.9145 -11.4431,13.2255 -3.6667,4.311 -9.3667,10.8742 -12.6667,14.5848 -3.3,3.7106 -9.6,10.8588 -14,15.8848 -4.4,5.026 -9.8834,11.2837 -12.1856,13.9061 -9.5467,10.875 -25.5436,29.397 -31.1477,36.0641 -3.3,3.9259 -9.9179,11.6431 -14.7065,17.1491 -4.7886,5.5062 -11.0886,12.99645 -14,16.64505 -2.9114,3.6485 -8.2935,10.2623 -11.9602,14.6974 -3.6667,4.4352 -8.2883,10.1188 -10.2703,12.6305 -1.982,2.5115 -6.235,7.8547 -9.4511,11.8736 -3.2161,4.0189 -10.7062,13.8834 -16.6446,21.9212 -5.9384,8.0377 -11.5854,15.5634 -12.5489,16.7235 -0.9635,1.1602 -2.3518,3.0295 -3.0851,4.1541 -0.7333,1.1245 -7.1083,10.6376 -14.1667,21.1402 -20.9507,31.1744 -36.5566,60.2121 -39.1799,72.9023 -0.5287,2.5575 -1.5741,5.4077 -2.3231,6.3337 -0.749,0.9259 -1.3655,7.2034 -1.3701,13.9498 -0.01,12.4167 2.7337,24.507 6.5723,28.9777 0.9905,1.1536 1.8008,2.7004 1.8008,3.4375 0,2.3264 11.0851,11.7559 17.3334,14.7444 10.8913,5.2092 37.3029,9.2684 47.0597,7.2329 3.8171,-0.7965 11.4403,-2.1499 16.9403,-3.0075 5.5,-0.8575 10.608,-2.0444 11.351,-2.6373 0.7431,-0.5929 4.3266,-1.8247 7.9634,-2.7371 3.6368,-0.9126 8.1288,-2.4477 9.9823,-3.4116 1.8535,-0.9639 3.8529,-1.7562 4.4431,-1.7606 1.0692,-0.013 7.4764,-2.7721 20.3888,-8.7955 3.7375,-1.7433 7.4375,-3.1698 8.2223,-3.1698 0.7847,0 1.6269,-0.4484 1.8713,-0.9964 0.2444,-0.548 6.7444,-4.2102 14.4444,-8.1383 7.7,-3.928 14.7573,-7.7436 15.6826,-8.4793 1.6451,-1.3076 6.9767,-4.3785 13.6508,-7.8625 1.8333,-0.9571 3.9333,-2.2012 4.6667,-2.7646 2.9272,-2.2493 11.4942,-7.6299 12.1481,-7.6299 0.3831,0 2.6631,-1.4946 5.0667,-3.3214 2.4036,-1.8267 5.0136,-3.3213 5.8,-3.3213 0.7862,0 1.6296,-0.4592 1.8741,-1.0206 0.2444,-0.5612 3.7444,-3.0823 7.7777,-5.6027 4.0334,-2.5203 7.6334,-4.9008 8,-5.2902 1.909,-2.027 13.3036,-9.3435 14.5514,-9.3435 0.7968,0 1.4486,-0.6126 1.4486,-1.3615 0,-0.7487 1.35,-1.9598 3,-2.6909 3.173,-1.4064 5.2847,-2.8832 21.3794,-14.953 5.5486,-4.1611 10.4333,-7.5657 10.8546,-7.5657 0.4214,0 1.816,-0.944 3.0994,-2.0975 1.2833,-1.1538 5.9333,-4.7315 10.3333,-7.951 4.4,-3.2192 8.9,-6.6561 10,-7.6375 1.1,-0.9815 7.1,-5.5775 13.3333,-10.2137 6.2334,-4.6361 12.2334,-9.234 13.3334,-10.2174 1.766,-1.5789 11.3921,-9.2775 25.1597,-20.1218 4.158,-3.2751 10.5725,-8.5422 21.0579,-17.2911 2.3197,-1.9355 6.7862,-5.6117 9.9257,-8.1691 3.1395,-2.5575 6.6791,-5.5467 7.8657,-6.6428 1.1867,-1.096 6.02,-5.2725 10.741,-9.281 11.4606,-9.7315 8.1492,-6.828 38.4621,-33.7226 30.9735,-27.48055 56.7632,-51.97035 99.5184,-94.50205 21.3019,-21.1905 40.8019,-41.1456 43.3333,-44.3447 2.5316,-3.1991 5.5028,-6.7967 6.6028,-7.9947 1.1,-1.198 4.1,-4.8475 6.6667,-8.11 2.5667,-3.2624 5.5667,-6.9118 6.6667,-8.1099 1.1,-1.198 4.1,-4.7524 6.6666,-7.8986 4.2428,-5.2009 20.2387,-24.3093 24.4122,-29.1624 0.9425,-1.096 5.8802,-7.0745 10.9728,-13.2856 5.0924,-6.211 9.8641,-11.9583 10.6037,-12.7719 0.7396,-0.8136 3.4447,-4.0468 6.0113,-7.1852 2.5667,-3.1382 6.7667,-8.1765 9.3334,-11.1961 2.5666,-3.0196 6.7666,-8.0771 9.3333,-11.2386 2.5667,-3.1615 5.2667,-6.4254 6,-7.2529 2.4436,-2.7576 21.3131,-25.3712 22.6667,-27.1644 0.7333,-0.9714 2.2333,-2.7822 3.3333,-4.0242 1.1,-1.2418 6.7049,-7.9248 12.4555,-14.851 5.7504,-6.9262 12.731,-15.2833 15.5124,-18.5715 2.7813,-3.2882 8.7662,-10.4624 13.2997,-15.9427 4.5335,-5.4803 9.7839,-11.7577 11.6676,-13.9498 1.8839,-2.1922 8.2117,-9.8148 14.062,-16.9392 5.8504,-7.1244 11.6193,-12.9249 12.8199,-12.89 1.9665,0.057 11.2872,1.3207 39.5162,5.3571 11.2515,1.6088 79.238,1.5846 100.6667,-0.036 8.4333,-0.6377 26.0811,-2.1275 39.2172,-3.3107 13.1361,-1.1831 24.3751,-1.9843 24.9753,-1.7804 0.6004,0.2039 -2.8638,4.8546 -7.6982,10.3349 -4.8346,5.4804 -11.8735,13.4876 -15.6422,17.794 -6.6009,7.5429 -8.6686,9.8946 -22.9916,26.1487 -3.59,4.0741 -9.5272,10.9024 -13.1938,15.1741 -3.6667,4.2717 -7.8667,9.0467 -9.3334,10.6112 -1.4666,1.5646 -7.1666,8.1653 -12.6666,14.6683 -5.5,6.503 -10.9,12.7873 -12,13.9651 -1.8508,1.9817 -4.5015,5.0566 -20,23.2016 -15.5847,18.2459 -18.1498,21.2192 -20,23.1836 -1.1,1.1678 -6.1571,7.1906 -11.238,13.3839 -5.081,6.1933 -10.0687,11.9518 -11.0839,12.7967 -1.0153,0.8448 -3.4581,3.6107 -5.4287,6.1463 -1.9705,2.5356 -7.405,9.0185 -12.0766,14.4065 -11.1614,12.873 -18.0244,20.9353 -28.1307,33.0462 -13.45,16.1178 -19.2061,22.8747 -22.0421,25.8743 -1.4667,1.5511 -6.8367,7.8726 -11.9334,14.0477 -5.0968,6.175 -10.1968,12.2449 -11.3333,13.4885 -2.9741,3.2543 -4.9612,5.6153 -15.4,18.2993 -5.1333,6.2373 -10.9247,13.1307 -12.8696,15.3185 -3.6675,4.1253 -9.9147,11.5269 -24.1021,28.5561 -4.5658,5.4803 -13.6538,16.2416 -20.1956,23.914 -15.3196,17.96715 -20.228,23.78655 -29.946,35.50405 -4.3778,5.2785 -8.7682,10.489 -9.7564,11.5788 -3.0502,3.3636 -5.4672,6.2418 -15.1303,18.0165 -10.7751,13.1298 -12.5556,15.2415 -15.4556,18.3315 -1.1672,1.2436 -7.4341,8.8375 -13.9265,16.8753 -6.4923,8.0377 -12.3006,15.2119 -12.9071,15.9427 -2.9287,3.5281 -39.9145,50.2035 -45.7405,57.7234 -3.6503,4.7118 -7.537,9.5529 -8.637,10.7582 -1.1,1.2052 -3.2,3.8672 -4.6666,5.9151 -2.8246,3.9441 -17.5723,22.7181 -20.4047,25.9752 -1.7263,1.9851 -29.1636,36.7456 -33.2841,42.1678 -1.2712,1.6728 -3.2507,4.0642 -4.3988,5.3143 -1.1483,1.2501 -5.0483,6.1589 -8.6667,10.9085 -3.6185,4.7496 -7.3291,9.1137 -8.2457,9.698 -0.9167,0.5843 -1.6667,1.73 -1.6667,2.5457 0,0.8157 -0.8968,2.4302 -1.9929,3.5875 -3.8018,4.0139 -8.907,10.74 -8.152,10.74 0.9284,0 17.9706,-6.5236 20.9794,-8.0307 1.1923,-0.5971 7.1923,-3.004 13.3334,-5.3483 13.2088,-5.0427 21.7534,-8.6155 26.9401,-11.2643 2.0761,-1.0603 4.3591,-1.9279 5.0732,-1.9279 0.7141,0 3.8155,-1.1338 6.892,-2.5195 3.0764,-1.3857 9.4935,-4.1214 14.2601,-6.0793 4.7667,-1.958 11.0667,-4.6309 14,-5.94 9.8436,-4.393 14.6176,-6.4449 23.3334,-10.0281 4.7666,-1.9597 9.8754,-4.3297 11.3529,-5.2666 1.4773,-0.9368 4.6273,-2.1283 7,-2.6474 2.3725,-0.5193 4.3137,-1.4285 4.3137,-2.0206 0,-0.5919 2.7,-1.8706 6,-2.8414 3.3,-0.971 6,-2.2327 6,-2.8039 0,-0.5711 0.5984,-1.0384 1.3298,-1.0384 0.7314,0 5.3814,-1.855 10.3333,-4.122 11.5493,-5.2876 41.7263,-19.672 44.3369,-21.134 1.1,-0.6161 8.3,-4.1814 16,-7.923 7.7,-3.7417 14.9,-7.3374 16,-7.9905 1.1,-0.6533 8.6,-4.5591 16.6667,-8.6797 8.0667,-4.1206 18.8667,-9.8518 24,-12.7361 5.1333,-2.8844 11.4333,-6.274 14,-7.5326 2.5667,-1.2587 4.9667,-2.6696 5.3333,-3.1356 0.3667,-0.4659 2.7667,-1.8073 5.3334,-2.9808 2.5666,-1.1734 7.0666,-3.6293 10,-5.4572 2.9333,-1.8281 8.9333,-5.4433 13.3333,-8.0338 21.858,-12.8693 29.8908,-17.9005 58.6667,-36.7455 8.0666,-5.2829 14.9666,-9.9268 15.3333,-10.32 0.7601,-0.8151 8.7085,-6.3355 21.3333,-14.8168 4.7667,-3.2021 9.1466,-6.5704 9.733,-7.4851 0.5864,-0.9145 1.6541,-1.6628 2.3725,-1.6628 0.7185,0 4.176,-2.2419 7.6835,-4.9821 3.5074,-2.7401 8.0398,-6.1777 10.072,-7.6391 2.0321,-1.4614 6.84,-5.0485 10.6841,-7.9713 3.8441,-2.9229 8.6567,-6.51 10.6947,-7.9714 4.6437,-3.3302 19.4393,-14.6958 22.0377,-16.929 1.0692,-0.919 7.0692,-5.7147 13.3333,-10.6573 6.264,-4.9425 12.6415,-10.0243 14.1722,-11.2928 1.5305,-1.2683 5.6686,-4.69765 9.1958,-7.62045 3.5271,-2.9229 8.9367,-7.4068 12.0212,-9.9642 3.0846,-2.5575 8.5131,-7.0414 12.0634,-9.9641 3.5502,-2.9229 7.4114,-6.2111 8.5804,-7.3072 1.1689,-1.096 8.4022,-7.3635 16.0741,-13.9275 7.6719,-6.5641 15.2029,-13.1405 16.7357,-14.6141 1.533,-1.4738 7.2235,-6.5655 12.6458,-11.3151 17.7146,-15.5171 27.1224,-24.1929 33.9006,-31.2631 16.0372,-16.7278 29.9664,-23.3842 39.0932,-18.6814 2.332,1.2016 4.2402,2.9274 4.2402,3.8351 0,6.08 -25.4599,31.8558 -58.9882,59.72 -5.3232,4.424 -9.9785,8.4543 -10.3452,8.9562 -0.3666,0.5019 -16.5666,13.5548 -36,29.006 -19.4333,15.4513 -36.2333,28.92965 -37.3333,29.95165 -1.1,1.022 -8.6193,6.8617 -16.7097,12.9771 -8.0903,6.1154 -15.5903,11.8707 -16.6667,12.7897 -1.0763,0.9189 -5.8569,4.6537 -10.6236,8.2995 -4.7667,3.6459 -10.6987,8.2747 -13.1821,10.2863 -2.4836,2.0115 -5.4836,4.2014 -6.6667,4.8664 -1.1832,0.6649 -3.7177,2.4584 -5.6324,3.9856 -1.9147,1.5272 -4.8325,3.6735 -6.484,4.7696 -1.6516,1.096 -5.1851,3.6951 -7.8523,5.7756 -4.9125,3.8322 -21.1068,15.0373 -25.2545,17.4741 -1.2437,0.7307 -2.5613,1.6356 -2.928,2.0108 -0.3667,0.3751 -4.2667,3.0654 -8.6667,5.9785 -4.4,2.913 -8.2,5.7446 -8.4444,6.2926 -0.2445,0.5481 -1.0878,0.9965 -1.8741,0.9965 -0.7864,0 -3.3964,1.4946 -5.8,3.3214 -2.4036,1.8268 -4.7164,3.3214 -5.1395,3.3214 -0.4232,0 -3.6132,1.9814 -7.089,4.403 -5.4228,3.7784 -29.4608,18.7821 -36.5802,22.8324 -1.2844,0.7307 -7.3012,4.2947 -13.3706,7.9199 -6.0695,3.6254 -13.7355,8.0326 -17.0355,9.7939 -3.3,1.7613 -6.9,3.9108 -8,4.7765 -1.1,0.8659 -3.5,2.2952 -5.3333,3.1764 -1.8334,0.8812 -5.7334,2.9737 -8.6667,4.6501 -2.9333,1.6761 -11.3333,6.2568 -18.6667,10.1791 -7.3333,3.9222 -16.2125,8.6711 -19.7316,10.5531 -19.3433,10.3449 -29.076,15.3644 -49.6017,25.5806 -34.2128,17.0287 -48.1536,23.6764 -49.6517,23.6764 -0.7454,0 -2.0888,0.881 -2.9856,1.9577 -0.8968,1.0767 -3.6703,2.339 -6.1634,2.8049 -2.4929,0.4661 -4.5326,1.3323 -4.5326,1.925 0,0.5928 -2.25,1.8138 -5,2.7134 -2.75,0.8997 -7.1,2.6908 -9.6667,3.9802 -2.5667,1.2894 -9.4667,4.5112 -15.3333,7.1594 -5.8667,2.6482 -13.7267,6.2842 -17.4666,8.0798 -3.74,1.7958 -7.74,3.265 -8.8889,3.265 -1.1489,0 -2.2889,0.4608 -2.5335,1.024 -0.2444,0.5632 -4.6444,2.7484 -9.7777,4.856 -5.1333,2.1076 -12.3912,5.2337 -16.1287,6.9472 -3.7374,1.7136 -7.7874,3.1155 -9,3.1155 -1.2125,0 -2.2046,0.5022 -2.2046,1.1159 0,0.6138 -2.55,1.9172 -5.6667,2.8964 -3.1167,0.9793 -6.2667,2.2033 -7,2.72 -0.7333,0.5167 -5.5333,2.5789 -10.6667,4.5827 -5.1333,2.0039 -11.8504,4.7616 -14.9268,6.1284 -3.0765,1.3666 -6.0765,2.5037 -6.6666,2.5265 -0.5903,0.023 -4.0732,1.512 -7.7399,3.3092 -3.6667,1.7972 -7.6812,3.2731 -8.9213,3.2799 -1.24,0 -2.5844,0.5436 -2.9874,1.1935 -0.403,0.6498 -2.3676,1.5903 -4.3658,2.0899 -1.9982,0.4997 -6.0746,2.0169 -9.0588,3.3715 -2.9843,1.3546 -7.0551,2.8703 -9.0463,3.3682 -1.9912,0.4981 -3.6204,1.3958 -3.6204,1.9952 0,0.5993 -0.7836,1.8796 -1.7413,2.8452 -0.9579,0.9656 -5.9626,6.9104 -11.1216,13.2107 -11.5195,14.0674 -12.6284,15.4015 -15.1371,18.2092 -1.1,1.231 -7.354,8.8108 -13.8977,16.8438 -6.5439,8.0329 -12.5439,15.2034 -13.3334,15.934 -0.7896,0.7307 -3.563,4.1098 -6.1633,7.5091 -2.6003,3.3993 -7.1967,9.0789 -10.2141,12.6214 -3.0175,3.5423 -11.3028,13.316 -18.4119,21.7191 -14.464,17.0966 -23.7643,27.8833 -32.6463,37.8638 -3.3,3.7082 -9.3,10.5569 -13.3333,15.2193 -4.0333,4.6625 -10.9333,12.3894 -15.3333,17.1708 -4.4,4.7815 -12.1482,13.2003 -17.2182,18.7086 -48.1192,52.2786 -112.1367,116.1019 -156.1152,155.6414 -4.4,3.9559 -10.3166,9.2772 -13.1481,11.8249 -8.2042,7.3827 -10.6217,9.5062 -19.6421,17.2539 -4.679,4.0189 -11.2154,9.7359 -14.5252,12.7047 -4.8134,4.3173 -36.0993,29.8754 -43.7802,35.7648 -0.9692,0.7433 -2.79,2.2482 -4.0463,3.3442 -6.3868,5.5725 -59.88208,45.6158 -72.85812,54.5372 -3.66666,2.521 -6.96666,4.9219 -7.33333,5.3354 -0.51335,0.579 -36.78877,24.6081 -48,31.7954 -1.1,0.7052 -4.27664,2.7878 -7.05921,4.628 -2.78256,1.8401 -5.29014,3.3458 -5.57238,3.3458 -0.28225,0 -4.0056,2.2883 -8.27413,5.0853 -4.26852,2.7969 -8.66095,5.5158 -9.76095,6.0419 -1.1,0.5261 -4.202,2.2731 -6.89332,3.8824 -2.69133,1.6092 -12.59133,7.287 -22,12.6172 -9.40868,5.3301 -18.00668,10.2743 -19.10668,10.9872 -1.1,0.7128 -4.01141,2.2144 -6.4698,3.3369 -2.4584,1.1223 -5.1584,2.6216 -6,3.3316 -4.3637,3.6812 -81.96676,42.183 -106.19686,52.6881 -10.5853,4.5894 -15.7167,6.8639 -22.9174,10.1583 -4.1713,1.9084 -7.9542,3.4698 -8.4065,3.4698 -0.4523,0 -3.3395,1.1182 -6.4159,2.4849 -3.0765,1.3669 -9.7935,4.0991 -14.9269,6.0716 -5.1333,1.9726 -11.224,4.4414 -13.5348,5.4864 -2.3108,1.0449 -4.9003,1.8998 -5.7543,1.8998 -0.8541,0 -2.8634,0.7073 -4.4652,1.572 -2.7037,1.4591 -26.5872,10.2151 -29.579,10.8438 -0.7333,0.154 -1.9333,0.6329 -2.6667,1.064 -0.7333,0.4312 -4.4852,1.5207 -8.3374,2.4212 -3.8523,0.9004 -7.3054,2.123 -7.6737,2.7167 -0.3682,0.5937 -3.2164,1.4922 -6.3292,1.9968 -3.1128,0.5045 -7.4597,1.6688 -9.6597,2.5874 -5.0058,2.0901 -27.5398,8.2328 -34.6666,9.45 -2.9334,0.501 -5.9334,1.279 -6.6667,1.7289 -1.7759,1.0893 -20.6635,5.0525 -38,7.9738 -7.7,1.2974 -14.9,2.7353 -16,3.1953 -2.4394,1.0199 -33.9498,4.6497 -54,6.2205 -17.1385,1.3427 -55.3556,1.3323 -70.6667,-0.019 z m 57.2637,-1.4015 c 34.2014,-2.6724 55.8999,-5.0088 71.403,-7.6883 23.0164,-3.9781 61.0306,-12.1518 63.3333,-13.6178 0.7334,-0.467 4.9334,-1.5541 9.3334,-2.416 4.4,-0.8619 9.8,-2.3611 12,-3.3314 2.2,-0.9704 6.5468,-2.1773 9.6596,-2.6818 3.1129,-0.5046 5.961,-1.4031 6.3293,-1.9968 0.3682,-0.5937 3.8213,-1.79 7.6736,-2.6583 3.8523,-0.8683 8.8041,-2.3769 11.0041,-3.3525 2.2,-0.9754 5.8,-2.201 8,-2.7235 2.2,-0.5224 4.6,-1.4068 5.3334,-1.9653 0.7333,-0.5585 4.0333,-1.7068 7.3333,-2.552 3.3,-0.8449 7.9021,-2.4034 10.2269,-3.4632 2.3248,-1.0598 6.0748,-2.2953 8.3333,-2.7452 2.2585,-0.4501 4.1065,-1.2705 4.1065,-1.8232 0,-0.5525 2.55,-1.6524 5.6666,-2.4441 3.1167,-0.7916 8.0436,-2.6561 10.9486,-4.1434 2.9051,-1.4872 6.3551,-2.704 7.6667,-2.704 1.3116,0 2.3847,-0.5331 2.3847,-1.1845 0,-0.6516 1.6292,-1.5921 3.6204,-2.09 1.9913,-0.4979 6.0621,-2.0137 9.0463,-3.3683 2.9842,-1.3546 7.055,-2.8704 9.0462,-3.3683 1.9913,-0.4979 3.6205,-1.3607 3.6205,-1.9172 0,-0.5566 2.7,-1.7652 6,-2.6858 3.3,-0.9207 6,-2.1293 6,-2.6859 0,-0.5565 1.65,-1.423 3.6666,-1.9255 9.1647,-2.2838 112.33523,-53.8385 113.44447,-56.6887 0.24445,-0.6282 1.06035,-1.1421 1.81311,-1.1421 1.215,0 38.74198,-21.0752 51.50334,-28.9243 2.69818,-1.6595 5.80578,-3.424 6.90578,-3.9213 1.1,-0.4971 4.1,-2.2889 6.66666,-3.9818 7.48711,-4.9383 8.33914,-5.4861 15.04631,-9.6743 3.5088,-2.1909 6.9088,-3.9834 7.55556,-3.9834 0.64675,0 1.37591,-0.4622 1.62036,-1.0269 0.24444,-0.5646 3.44444,-2.9603 7.11111,-5.3234 8.55925,-5.5166 9.36664,-6.0626 17.33333,-11.7211 3.66667,-2.6043 9.96667,-6.9174 14,-9.5843 4.03333,-2.6671 7.93333,-5.3355 8.66667,-5.9298 0.73333,-0.5943 5.53333,-4.0308 10.66666,-7.6365 5.13334,-3.6057 10.53334,-7.4803 12,-8.6103 4.41792,-3.4034 17.52319,-13.0946 21.54369,-15.9313 5.262,-3.7125 70.35313,-55.7184 73.45113,-58.6852 1.3948,-1.3356 5.7915,-5.1918 9.7706,-8.5694 14.2055,-12.058 20.2969,-17.3129 21.8621,-18.8602 0.8735,-0.8635 5.3708,-4.8581 9.994,-8.8771 37.3326,-32.4527 112.9403,-107.0683 157.3785,-155.3137 6.9667,-7.5635 15.0667,-16.2814 18,-19.3732 2.9334,-3.0917 10.4334,-11.4566 16.6667,-18.5886 6.2333,-7.1319 12.5333,-14.2776 14,-15.8791 4.5367,-4.9541 16.0009,-18.1693 26.0128,-29.9856 5.2624,-6.211 11.4693,-13.3852 13.7932,-15.9427 2.3237,-2.5574 9.2597,-10.9273 15.4133,-18.5997 6.1535,-7.6724 11.8631,-14.5477 12.6878,-15.2785 0.8246,-0.7306 10.7564,-12.6877 22.0704,-26.571 11.314,-13.8835 21.2582,-25.8405 22.0982,-26.5712 0.8402,-0.7307 5.0031,-5.6863 9.2512,-11.0121 5.784,-7.2518 9.4659,-10.5049 14.6604,-12.9534 3.8152,-1.7986 7.7788,-3.2889 8.808,-3.3121 1.0292,-0.023 3.036,-0.9201 4.4595,-1.9929 1.4236,-1.0728 3.412,-1.9506 4.4188,-1.9506 1.0068,0 5.11,-1.4946 9.118,-3.3214 4.0081,-1.8267 8.0496,-3.3214 8.9812,-3.3214 0.9316,0 2.2639,-0.5369 2.9605,-1.1933 0.6967,-0.6564 5.4667,-2.8263 10.6,-4.8221 5.1334,-1.9958 11.8504,-4.747 14.9268,-6.1138 3.0766,-1.3667 5.9636,-2.4849 6.416,-2.4849 0.4523,0 4.2352,-1.553 8.4064,-3.4513 9.9898,-4.5462 13.8792,-6.2259 24.2508,-10.4728 4.7667,-1.9518 11.2167,-4.6991 14.3334,-6.1051 3.1166,-1.4059 8.3666,-3.7519 11.6666,-5.2134 3.3,-1.4614 8.7,-3.8528 12,-5.3142 3.3,-1.4614 8.5895,-3.8528 11.7543,-5.3143 3.1649,-1.4613 6.3915,-2.657 7.1701,-2.657 0.7787,0 2.1106,-0.8342 2.9599,-1.8539 0.8492,-1.0197 3.6227,-2.2425 6.1632,-2.7173 2.5405,-0.475 4.6192,-1.3878 4.6192,-2.0289 0,-0.6409 1.9991,-1.8226 4.4424,-2.6261 2.4432,-0.8036 6.7701,-2.6433 9.6152,-4.0886 2.8451,-1.4453 5.946,-2.6279 6.8909,-2.6279 0.945,0 1.7182,-0.5022 1.7182,-1.1159 0,-0.6138 2.4,-1.9051 5.3333,-2.8698 2.9333,-0.9647 5.3333,-2.2561 5.3333,-2.8698 0,-0.6136 0.6752,-1.1158 1.5003,-1.1158 1.6295,0 61.4064,-29.2288 62.4997,-30.5602 0.3667,-0.4466 2.7667,-1.6408 5.3334,-2.6538 2.5666,-1.013 4.9666,-2.1748 5.3333,-2.5816 0.3667,-0.407 4.8667,-2.8323 10,-5.3898 5.1333,-2.5574 9.6333,-5.0311 10,-5.497 0.3667,-0.4659 2.7667,-1.786 5.3333,-2.9336 2.5667,-1.1474 9.4667,-4.8107 15.3334,-8.1406 5.8666,-3.3297 12.1666,-6.7802 14,-7.6678 1.8333,-0.8875 3.6333,-1.9727 4,-2.4115 0.3666,-0.4387 2.6166,-1.643 5,-2.6762 2.3833,-1.0333 4.3333,-2.2722 4.3333,-2.7529 0,-0.4809 1.65,-1.5134 3.6667,-2.2945 2.0166,-0.7812 6.0666,-2.9047 9,-4.719 2.9333,-1.8144 9.5333,-5.7477 14.6666,-8.7407 5.1334,-2.993 11.1334,-6.5894 13.3334,-7.9919 2.2,-1.4025 5.8,-3.5484 8,-4.7685 2.2,-1.2203 4.3,-2.6231 4.6666,-3.1175 0.3667,-0.4942 4.2667,-2.9121 8.6667,-5.3732 4.4,-2.461 8.3,-4.8325 8.6667,-5.2701 0.3666,-0.4375 3.9666,-2.8591 8,-5.3812 4.0333,-2.522 7.9333,-5.059 8.6666,-5.6376 0.7334,-0.5787 4.3334,-2.9682 8,-5.3102 3.6667,-2.3419 7.2667,-4.7253 8,-5.2966 1.27,-0.9892 25.2172,-17.6425 30.5194,-21.2236 3.148,-2.1261 40.1829,-29.6312 42.4682,-31.5403 0.9235,-0.7715 5.5791,-4.3762 10.3458,-8.0108 4.7666,-3.6344 9.5666,-7.4077 10.6666,-8.385 1.1,-0.9773 5.9,-4.7063 10.6667,-8.2866 4.7667,-3.5803 9.3176,-7.126 10.1132,-7.8796 0.7956,-0.7536 3.11,-2.5657 5.1429,-4.0271 2.0331,-1.4615 5.282,-3.96355 7.2202,-5.56015 3.9882,-3.2858 18.8278,-15.1203 20.857,-16.6332 0.7334,-0.5469 3.4334,-2.8315 6,-5.077 2.5667,-2.2455 7.9667,-6.5924 12,-9.6598 4.0334,-3.0673 7.6334,-5.9475 8,-6.4004 0.3667,-0.4528 6.0667,-5.1903 12.6667,-10.5278 6.6,-5.3373 12.3,-10.0817 12.6667,-10.5431 0.3666,-0.4613 4.267,-3.7962 8.6676,-7.4111 4.4005,-3.6147 9.2324,-7.7681 10.7376,-9.2295 1.505,-1.4614 7.404,-6.8421 13.1085,-11.957 5.7045,-5.115 13.3287,-12.887 16.9427,-17.2713 3.614,-4.3842 7.2148,-8.7467 8.0017,-9.6945 2.478,-2.9843 -1.1573,-5.5838 -7.8087,-5.5838 -8.9964,0 -16.2022,4.3442 -30.7152,18.5175 -7.1544,6.987 -17.7914,16.9734 -23.6378,22.192 -16.4154,14.6529 -38.0575,33.7002 -46.0595,40.5371 -3.9803,3.4009 -12.0369,10.3002 -17.9036,15.332 -8.8601,7.5993 -35.2961,29.28475 -41.7623,34.25755 -0.9692,0.7455 -2.7785,2.2521 -4.0208,3.3481 -1.2421,1.0961 -7.649,6.1358 -14.2377,11.1995 -6.5885,5.0634 -12.8792,9.9971 -13.9792,10.9632 -5.3503,4.6998 -17.2656,13.7084 -18.1316,13.7084 -0.5379,0 -1.9284,0.9203 -3.0899,2.0453 -1.1616,1.1249 -5.7118,4.6956 -10.1118,7.9349 -4.4,3.2393 -9.2,6.8035 -10.6667,7.9206 -7.3964,5.633 -28.4413,20.5048 -34.8297,24.613 -8.0479,5.1752 -18.5486,12.722 -18.948,13.6176 -0.2446,0.5481 -0.909,0.9965 -1.4766,0.9965 -0.5676,0 -6.6676,3.7268 -13.5554,8.2817 -14.5139,9.5978 -15.1308,9.9905 -22.0095,14.0091 -2.8495,1.6646 -6.7731,4.056 -8.7191,5.3142 -3.4209,2.2117 -16.4205,9.9697 -26.3162,15.705 -2.6467,1.5341 -9.0122,5.0728 -14.1455,7.8639 -5.1333,2.7911 -9.6333,5.4221 -10,5.8466 -0.3667,0.4244 -2.7667,1.8159 -5.3333,3.0923 -2.5667,1.2763 -11.2667,5.8654 -19.3334,10.1979 -24.8553,13.3495 -90.1374,45.518 -113.3333,55.8467 -3.6667,1.6326 -8.4667,3.7705 -10.6667,4.7509 -2.2,0.9803 -6.7,2.9615 -10,4.4026 -3.3,1.441 -9.6,4.2353 -14,6.2094 -4.4,1.9741 -10.4,4.6389 -13.3333,5.9218 -2.9333,1.283 -7.4333,3.2516 -10,4.375 -2.5667,1.1233 -8.5667,3.6393 -13.3333,5.5911 -4.7667,1.9518 -11.1062,4.6991 -14.0876,6.1051 -2.9816,1.4059 -6.4316,2.5563 -7.6667,2.5563 -1.2352,0 -2.2457,0.5978 -2.2457,1.3285 0,0.7308 -0.6478,1.3286 -1.4392,1.3286 -1.3691,0 -14.6596,4.9803 -23.2275,8.704 -2.2,0.9562 -8.2,3.3476 -13.3333,5.3142 -5.1334,1.9668 -11.1334,4.3582 -13.3334,5.3143 -9.9236,4.3129 -22.2388,8.7722 -22.7685,8.2444 -0.3199,-0.3189 0.4721,-1.8769 1.7601,-3.4623 1.2879,-1.5854 3.3663,-4.222 4.6186,-5.8593 1.2522,-1.6373 3.7252,-4.7704 5.4954,-6.9626 1.7702,-2.1921 12.9256,-16.2416 24.7898,-31.221 25.7993,-32.5736 27.0624,-34.1656 28.7713,-36.2598 0.7333,-0.8986 4.2939,-5.5132 7.9124,-10.2546 3.6184,-4.7415 7.5184,-9.6435 8.6667,-10.8936 1.1481,-1.2501 3.135,-3.6415 4.4152,-5.3143 1.2801,-1.6726 13.416,-17.0908 26.9685,-34.2624 13.5525,-17.1716 25.7051,-32.6372 27.0057,-34.3682 1.3007,-1.7308 3.2648,-4.1531 4.3648,-5.3829 1.1,-1.2298 4.9938,-6.091 8.6527,-10.8029 3.6591,-4.7117 8.2856,-10.3603 10.2813,-12.5524 1.9958,-2.1922 7.295,-8.4696 11.776,-13.9499 4.4811,-5.4803 10.4615,-12.6545 13.29,-15.9427 2.8286,-3.2881 8.855,-10.4624 13.3923,-15.9426 4.5372,-5.4803 10.5397,-12.6546 13.3389,-15.9427 2.7992,-3.2882 8.7992,-10.4624 13.3334,-15.9427 4.5341,-5.4803 10.5264,-12.6545 13.316,-15.94275 13.1758,-15.5302 23.7553,-28.0773 28.6194,-33.9424 2.9334,-3.537 6.2334,-7.3753 7.3334,-8.5297 1.1,-1.1544 6.1717,-7.1661 11.2704,-13.3595 5.0988,-6.1933 10.0749,-12.1574 11.0582,-13.2534 5.282,-5.8873 10.6568,-12.2605 17.3668,-20.5926 4.1192,-5.115 8.1228,-9.8978 8.897,-10.6285 0.7741,-0.7306 5.9076,-6.7091 11.4076,-13.2855 5.5,-6.5764 10.6,-12.6288 11.3333,-13.4498 0.7333,-0.8211 3.7333,-4.3749 6.6667,-7.8974 2.9333,-3.5226 6.2333,-7.3492 7.3333,-8.5036 1.1,-1.1544 6.1871,-7.1662 11.3047,-13.3594 5.1174,-6.1934 10.9046,-13.0542 12.8602,-15.2463 5.6104,-6.289 22.7039,-26.2081 27.8351,-32.4366 2.5667,-3.1155 5.3024,-6.3584 6.0795,-7.2066 0.7769,-0.8481 4.9594,-5.727 9.2945,-10.842 4.3351,-5.1149 9.6993,-11.3379 11.9207,-13.8286 4.3474,-4.8752 9.3288,-10.5996 11.0878,-12.7425 3.2131,-3.9137 17.0434,-20.1369 18.2312,-21.3853 2.5994,-2.732 26.946,-30.8074 41.876,-48.2897 6.0068,-7.0334 7.8991,-9.1769 22.9899,-26.0417 3.9529,-4.4175 10.4797,-11.8072 14.504,-16.4215 4.0243,-4.6143 8.7075,-9.8848 10.4072,-11.7122 1.6996,-1.8274 2.9069,-3.4815 2.6831,-3.6759 -0.4075,-0.3535 -12.5298,0.7466 -35.0739,3.1829 -11.6703,1.2612 -72.6217,4.626 -84.6667,4.674 -9.7816,0.039 -50.6857,-3.2231 -59.3333,-4.7318 -23.5443,-4.1074 -22.3101,-4.1341 -26,0.5621 -1.8333,2.3333 -4.2333,5.1566 -5.3333,6.274 -1.1,1.1174 -7.376,8.5965 -13.9466,16.6202 -6.5705,8.0238 -13.2897,16.0833 -14.9313,17.91 -1.6416,1.8269 -7.6756,9.0011 -13.4087,15.9427 -5.733,6.9418 -11.7124,14.116 -13.2874,15.9427 -1.575,1.8268 -6.5475,7.8053 -11.05,13.2856 -4.5026,5.4803 -10.4928,12.6545 -13.3115,15.9427 -2.8188,3.2882 -8.8293,10.4624 -13.3568,15.9427 -4.5275,5.4803 -10.5459,12.6545 -13.3744,15.9427 -2.8285,3.2882 -8.8285,10.4624 -13.3333,15.9427 -4.5048,5.4803 -10.492,12.6545 -13.305,15.9427 -4.5548,5.3244 -12.9272,15.4119 -25.7874,31.0704 -5.2992,6.4522 -22.9644,27.6979 -33.2651,40.0073 l -7.7821,9.2999 5.734,0.4246 c 14.1017,1.0444 13.8576,9.8103 -0.765,27.4701 -5.439,6.5688 -39.5798,40.8511 -49.6202,49.8258 -2.8612,2.5575 -11.5038,10.2657 -19.2056,17.1295 -7.702,6.8637 -18.5036,16.5007 -24.0036,21.4156 -5.5,4.915 -14.3554,12.63395 -19.6784,17.15335 -5.3232,4.5193 -12.6288,11.7494 -16.2347,16.0667 -9.9677,11.9346 -9.9445,11.9074 -12.1745,14.3228 -1.1483,1.2437 -5.0483,6.1163 -8.6667,10.828 -3.6185,4.7119 -7.4791,9.6013 -8.5791,10.8655 -3.4072,3.9157 -5.2842,6.2113 -25.8508,31.6153 -10.9892,13.5741 -20.6184,25.4087 -21.3981,26.2993 -0.7797,0.8904 -2.9177,3.516 -4.7511,5.8346 -1.8333,2.3186 -5.4333,6.7364 -8,9.8175 -2.5666,3.0811 -6.1666,7.4989 -8,9.8175 -1.8333,2.3186 -3.9612,4.9443 -4.7285,5.8347 -0.7673,0.8905 -13.0176,15.9675 -27.2227,33.5044 -14.2052,17.537 -28.2773,34.8543 -31.2714,38.483 -2.9943,3.6287 -5.88,7.2158 -6.4128,7.9713 -0.5328,0.7556 -2.8126,3.4662 -5.0662,6.0237 -2.2536,2.5574 -6.6177,7.9168 -9.6978,11.9096 -3.0803,3.9927 -6.5006,8.2843 -7.6006,9.5367 -1.1,1.2525 -2.612,3.0674 -3.3601,4.0331 -2.4792,3.2007 -25.1361,30.948 -26.9272,32.9771 -0.9676,1.096 -5.7987,7.0759 -10.7359,13.2886 -4.9372,6.2127 -9.9898,12.4901 -11.2281,13.9498 -3.4576,4.0764 -10.6421,12.8861 -15.082,18.4941 -2.2,2.7789 -5.104,6.3301 -6.4532,7.8918 -1.3492,1.5617 -6.4492,7.7896 -11.3333,13.8398 -5.1766,6.4126 -10.2334,11.3465 -12.1246,11.83 -1.7845,0.4563 -4.7845,1.6304 -6.6666,2.6092 -1.8823,0.9786 -4.3223,1.7868 -5.4223,1.7957 -1.1,0.013 -3.563,0.8291 -5.4734,1.8223 -1.9103,0.9934 -6.7103,2.5368 -10.6666,3.4301 -3.9564,0.8931 -8.9934,2.4188 -11.1934,3.3901 -2.2,0.9713 -6.4,2.1924 -9.3333,2.7135 -2.9333,0.5211 -5.9333,1.3892 -6.6667,1.9289 -0.7333,0.5397 -4.6333,1.7498 -8.6666,2.6891 -4.0334,0.9392 -8.2334,2.2026 -9.3334,2.8073 -1.1,0.6048 -5.3,1.9784 -9.3333,3.0524 -4.0333,1.0739 -11.5333,3.2525 -16.6667,4.8412 -5.1333,1.5887 -12.9333,3.9128 -17.3333,5.1646 -4.4,1.2518 -9.5,2.8951 -11.3333,3.6516 -1.8334,0.7566 -5.8802,1.8016 -8.993,2.3221 -3.1129,0.5204 -5.961,1.432 -6.3293,2.0256 -0.3682,0.5938 -3.8213,1.79 -7.6736,2.6584 -3.8523,0.8683 -8.8948,2.4229 -11.2056,3.4548 -2.3109,1.0319 -4.8585,1.8761 -5.6614,1.8761 -0.8029,0 -4.9122,1.1423 -9.1318,2.5385 -4.2196,1.3961 -13.072,4.1299 -19.672,6.0751 -6.60003,1.9451 -12.90003,3.9986 -14.00003,4.5633 -1.1,0.5647 -5.3,1.7953 -9.3333,2.7346 -4.03335,0.9393 -7.94133,2.183 -8.68442,2.764 -0.74308,0.5809 -4.34308,1.7845 -8,2.6748 -3.65691,0.8903 -7.24893,2.0375 -7.98227,2.5494 -0.73333,0.5117 -4.33333,1.6861 -8,2.6096 -3.66666,0.9233 -8.46666,2.4477 -10.66666,3.3874 -2.2,0.9396 -6.1,2.1395 -8.66667,2.6662 -2.56667,0.5268 -5.27464,1.4424 -6.01773,2.0347 -0.74308,0.5923 -4.34308,1.8051 -8,2.6954 -3.65691,0.8903 -7.25691,2.086 -8,2.6572 -0.74308,0.5711 -4.34308,1.7668 -8,2.657 -3.65691,0.8903 -7.25691,2.086 -8,2.6571 -0.74308,0.5712 -4.34308,1.7669 -8,2.6572 -3.65691,0.8902 -7.25691,2.0859 -8,2.657 -0.74308,0.5712 -4.34308,1.7669 -8,2.6572 -3.65691,0.8903 -7.25691,2.086 -8,2.6571 -0.74308,0.5712 -4.32659,1.785 -7.96335,2.6975 -3.63676,0.9126 -8.12879,2.4477 -9.98227,3.4116 -1.85349,0.9639 -4.1793,1.7563 -5.16848,1.7606 -0.98917,0 -3.68917,0.8535 -6,1.8866 -2.31082,1.0329 -6.6015,2.5791 -9.53484,3.4359 -2.93333,0.8567 -7.13333,2.3533 -9.33333,3.3258 -2.2,0.9726 -6.25,2.1833 -9,2.6906 -2.75,0.5071 -5,1.3868 -5,1.9549 0,0.5681 -1.95,1.4015 -4.33333,1.8522 -2.38334,0.4506 -5.83334,1.5963 -7.66667,2.546 -1.83334,0.9496 -6.33334,2.5401 -10.00003,3.5343 -3.6666,0.9944 -7.8502,2.6055 -9.2967,3.5804 -1.4465,0.975 -3.5465,1.793 -4.6666,1.8177 -1.1202,0.025 -4.4367,1.2002 -7.37,2.6121 -2.9333,1.4119 -6.2333,2.6076 -7.3333,2.6571 -1.1,0.049 -4.4,1.2453 -7.3334,2.6571 -2.9333,1.4118 -6.2422,2.5872 -7.3531,2.6121 -1.1108,0.025 -4.1108,1.1611 -6.6666,2.5251 -2.5558,1.3638 -6.5969,2.906 -8.9803,3.4268 -2.3833,0.521 -4.3333,1.4309 -4.3333,2.0223 0,0.5912 -1.9609,1.4416 -4.3577,1.8896 -2.3966,0.4481 -6.4466,1.9294 -9,3.2921 -2.5532,1.3627 -6.5923,2.9037 -8.9756,3.4245 -2.3834,0.5209 -4.3334,1.4326 -4.3334,2.0259 0,0.5935 -1.65,1.4843 -3.6666,1.9794 -3.5255,0.8658 -7.8974,2.7295 -22.3525,9.5286 -3.6772,1.7294 -7.7272,3.1447 -9,3.1447 -1.2728,0 -2.3142,0.5978 -2.3142,1.3285 0,0.7308 -0.5984,1.3286 -1.3298,1.3286 -1.3191,0 -9.4737,3.6074 -30.0035,13.2729 -19.5604,9.2091 -22.832,10.6411 -24.3099,10.6411 -0.8074,0 -1.6679,0.4888 -1.9124,1.0861 -0.5432,1.3274 -17.3732,9.5423 -19.5498,9.5423 -0.8587,0 -1.5613,0.5022 -1.5613,1.1159 0,0.6138 -2.4,1.9052 -5.3333,2.8698 -2.9333,0.9647 -5.3333,2.1359 -5.3333,2.6029 0,0.4668 -2.25,1.6512 -5,2.6317 -2.75,0.9804 -5.3,2.1903 -5.6667,2.6887 -0.9426,1.2808 -17.9094,9.348 -19.6609,9.348 -0.7976,0 -1.6502,0.4765 -1.8947,1.059 -0.2444,0.5824 -2.8444,2.2568 -5.7777,3.7208 -2.9334,1.4639 -13.7334,7.0745 -24,12.4676 -10.2667,5.3932 -21.0667,11.0091 -24,12.4798 -2.9334,1.4708 -5.6334,3.0064 -6,3.4125 -0.3667,0.4062 -4.8667,2.831 -10,5.3884 -5.1334,2.5575 -9.6456,5.0609 -10.0272,5.5632 -0.3816,0.5024 -2.1816,1.5382 -4,2.302 -1.8184,0.7637 -5.7062,2.8664 -8.6395,4.6723 -2.9333,1.8059 -9.7363,5.8518 -15.1176,8.9907 -11.4019,6.6508 -11.5475,6.7375 -22.8868,13.6286 -4.7642,2.8955 -10.7623,6.6429 -13.3289,8.3279 -2.5667,1.6849 -5.5667,3.6394 -6.6667,4.3433 -40.537,25.9403 -74.9972,53.3938 -105.0613,83.6991 -9.786,9.8645 -18.5265,18.8323 -19.4232,19.9283 -9.4951,11.6051 -13.5101,16.9908 -20.2786,27.2009 -4.347,6.5574 -8.5673,13.1337 -9.3785,14.6142 -5.5352,10.1019 -9.8584,18.7265 -9.8584,19.667 0,0.6082 -1.1321,3.6139 -2.5157,6.6795 -1.3836,3.0654 -2.9529,7.6658 -3.4873,10.2233 -0.5344,2.5575 -1.5285,5.3404 -2.2091,6.1845 -0.6806,0.8439 -2.1814,9.2138 -3.335,18.5997 -2.6301,21.3986 -1.0754,40.9435 4.475,56.2578 1.9862,5.4802 4.09,10.1634 4.675,10.4069 0.5851,0.2438 1.0637,1.0038 1.0637,1.6894 0,4.5796 16.7796,23.2173 27.3334,30.36 14.3143,9.6878 32.8736,17.3229 53.7164,22.098 13.4589,3.0836 21.6578,4.1833 43.5939,5.8476 10.9873,0.8335 20.2373,1.7752 20.5555,2.0921 1.0197,1.0161 17.4502,0.6191 36.7312,-0.8873 z m -48.9799,-15.3032 c -0.5179,-0.5159 -7.6936,-1.6999 -15.9461,-2.6306 -37.4814,-4.2276 -77.949,-24.5098 -93.836,-47.0301 -9.7449,-13.8137 -11.483,-18.9344 -12.1792,-35.8813 -0.6025,-14.6642 1.2291,-33.4914 3.5461,-36.4519 0.6034,-0.7709 1.5261,-3.1953 2.0504,-5.3874 1.6317,-6.822 10.6867,-25.7785 16.8171,-35.2067 2.1381,-3.2882 4.3118,-6.8753 4.8304,-7.9714 0.8747,-1.8483 5.0015,-7.3203 15.53,-20.5926 4.3387,-5.4693 36.1185,-37.4883 45.5844,-45.9274 7.7483,-6.9079 37.7356,-30.468 44.6889,-35.1109 3.28,-2.19 6.2636,-4.2962 6.6302,-4.6806 0.607,-0.6362 2.6675,-2.079 11.346,-7.9444 7.492,-5.0635 27.3718,-18.0997 33.9874,-22.2872 4.0333,-2.5531 8.8333,-5.6479 10.6666,-6.8775 1.8334,-1.2297 4.2334,-2.6723 5.3334,-3.2058 1.1,-0.5336 4.2106,-2.2868 6.9125,-3.896 17.8622,-10.6387 50.3577,-28.8327 51.4966,-28.8327 0.7527,0 1.5686,-0.4766 1.8131,-1.059 0.5082,-1.2108 -1.5782,-0.125 50.5393,-26.3017 37.5418,-18.8556 52.2867,-25.972 67.2385,-32.4515 8.7792,-3.8046 15.9872,-6.9998 23.3333,-10.3434 3.3,-1.5019 7.65,-3.136 9.6667,-3.6313 2.0166,-0.4952 3.6666,-1.4334 3.6666,-2.0849 0,-0.6515 1.05,-1.19 2.3334,-1.1966 1.2833,-0.013 5.3333,-1.4827 9,-3.28 3.6666,-1.7971 7.1759,-3.2863 7.7984,-3.3092 0.6226,-0.023 3.0226,-0.8861 5.3334,-1.9184 7.9029,-3.5304 20.198,-8.5542 29.5348,-12.068 5.1334,-1.9316 11.224,-4.3673 13.5349,-5.4122 2.3108,-1.045 4.7108,-1.9202 5.3333,-1.9449 0.6225,-0.025 3.5318,-1.2002 6.4652,-2.612 2.9333,-1.412 5.8162,-2.5873 6.4064,-2.6121 0.5903,-0.025 3.7403,-1.2558 7.0001,-2.7354 3.2598,-1.4798 7.7268,-3.049 9.9268,-3.4875 2.2,-0.4384 4,-1.3201 4,-1.9596 0,-0.6393 0.8547,-1.1624 1.8992,-1.1624 1.8313,0 18.3184,-6.149 26.969,-10.0583 2.3108,-1.0444 4.6637,-1.8987 5.2287,-1.8987 1.15825,0 16.35062,-5.825 22.79664,-8.7406 2.3248,-1.0516 6.0748,-2.2802 8.33334,-2.7302 2.25854,-0.4502 4.10645,-1.2669 4.10645,-1.8149 0,-0.548 1.79999,-1.3551 3.99996,-1.7935 2.19999,-0.4385 6.66707,-2.0077 9.92685,-3.4875 3.25979,-1.4796 6.59272,-2.6903 7.40652,-2.6903 0.8138,0 4.14674,-1.2107 7.40652,-2.6904 3.25979,-1.4796 7.72687,-3.049 9.92686,-3.4874 2.19997,-0.4384 3.99996,-1.2537 3.99996,-1.8117 0,-0.558 2.25,-1.4244 5,-1.9251 2.75,-0.5008 6.2,-1.6684 7.66666,-2.5948 1.46667,-0.9264 4.44586,-2.1216 6.62042,-2.6559 2.17456,-0.5344 6.49164,-2.1236 9.59352,-3.5316 3.10186,-1.408 6.42268,-2.5637 7.37958,-2.5683 0.9569,0 3.42023,-0.8814 5.47406,-1.9488 2.05382,-1.0675 5.65382,-2.5259 8,-3.2409 2.34617,-0.715 8.46576,-2.8647 13.59909,-4.777 16.45064,-6.1284 23.84375,-8.7532 30.66667,-10.8873 3.66666,-1.1469 6.96666,-2.5096 7.33333,-3.0282 0.36667,-0.5186 2.46667,-1.3619 4.66667,-1.8738 3.70142,-0.8615 15.07725,-4.9283 21.33335,-7.6265 3.2798,-1.4149 16.3672,-5.9239 25.33333,-8.7285 3.6667,-1.1467 6.9667,-2.5031 7.3333,-3.0137 0.3667,-0.5109 3.0667,-1.5861 6,-2.3893 2.9334,-0.8035 9.5334,-3.0374 14.6667,-4.9643 5.1333,-1.9271 11.4333,-4.1156 14,-4.8635 2.5667,-0.7478 6.4667,-2.1101 8.6667,-3.0275 11.7711,-4.9081 27.0712,-10.1066 29.1842,-9.9158 0.6514,0.059 1.5514,-0.4436 2,-1.1164 0.4487,-0.6726 3.2158,-1.8804 6.1491,-2.6837 2.9333,-0.8033 9.5333,-3.0304 14.6667,-4.9492 5.1333,-1.9187 12.3333,-4.4102 16,-5.5365 3.6666,-1.1266 7.2666,-2.4803 8,-3.0084 0.7333,-0.5283 4.0333,-1.7248 7.3333,-2.6588 3.3,-0.9342 6.6,-2.1521 7.3333,-2.7066 0.7334,-0.5544 3.1334,-1.4174 5.3334,-1.9176 3.8633,-0.8785 11.6381,-3.6719 25.0992,-9.0182 3.5379,-1.405 7.5595,-2.3695 8.937,-2.1431 2.1275,0.3498 1.661,1.3415 -3.0992,6.589 -3.082,3.3975 -8.3037,9.324 -11.6037,13.1698 -11.3424,13.2185 -17.6589,20.5256 -24.4891,28.3297 -3.7643,4.3011 -8.9442,10.2384 -11.5109,13.1939 -2.5667,2.9557 -7.3667,8.4365 -10.6667,12.1798 -3.3,3.7433 -9.3,10.6214 -13.3333,15.2845 -4.0333,4.6631 -9.5051,10.9082 -12.1595,13.8781 -2.6544,2.97 -7.7544,8.7268 -11.3333,12.7929 -12.104,13.7514 -22.5001,25.4782 -23.9203,26.9818 -0.7772,0.823 -7.0146,7.7737 -13.861,15.4461 -18.9146,21.1966 -35.9185,39.9284 -56.63293,62.3876 -55.64475,60.3319 -76.73745,82.4639 -124.57249,130.7103 -33.20887,33.4943 -74.35523,73.3263 -88.13282,85.3175 -2.46645,2.1466 -6.09094,5.3975 -8.05434,7.2244 -1.9635,1.8267 -5.337,4.8549 -7.4968,6.7292 -2.1598,1.8744 -8.7065,7.581 -14.5484,12.6815 -32.8199,28.6546 -83.0663,65.5447 -115.9613,85.1368 -34.7451,20.6939 -71.4994,38.7008 -101.3268,49.6427 -4.4,1.6142 -9.2,3.4539 -10.6667,4.0881 -4.1864,1.8107 -26.1643,8.656 -31.3333,9.7592 -2.5667,0.5477 -5.2667,1.4563 -6,2.0189 -0.7334,0.5626 -5.8135,1.7652 -11.2891,2.6723 -5.4757,0.9072 -10.8757,2.1513 -12,2.7647 -1.8317,0.9993 -10.2825,2.5624 -35.3776,6.5437 -21.6353,3.4322 -84.1751,6.6649 -86.3829,4.4649 z m 71.8257,-4.5476 c 15.2276,-1.8048 39.4454,-5.9901 52.5572,-9.0827 24.9623,-5.8877 28.7449,-6.8666 30.6667,-7.9358 1.1,-0.6121 5.2369,-1.8837 9.1933,-2.8255 3.9563,-0.9419 8.7563,-2.5252 10.6666,-3.5185 1.9104,-0.9933 4.3734,-1.8299 5.4734,-1.8592 1.1,-0.029 4.4,-1.2083 7.3333,-2.6202 2.9334,-1.4118 6.2334,-2.606 7.3334,-2.6535 1.1,-0.048 5,-1.5572 8.6666,-3.3543 3.6667,-1.7974 7.7167,-3.2733 9,-3.28 1.2834,0 2.3334,-0.5451 2.3334,-1.1966 0,-0.6516 1.5854,-1.581 3.5232,-2.0657 3.1127,-0.7784 37.9447,-17.4405 43.1434,-20.6378 1.1,-0.6765 8.6,-4.9192 16.6667,-9.4281 15.3956,-8.6055 19.7543,-11.3134 44.684,-27.7606 13.5149,-8.9164 50.5223,-35.838 55.9827,-40.7254 1.1,-0.9846 5,-4.2499 8.6666,-7.2563 16.5874,-13.6005 22.3944,-18.6142 43.9374,-37.9351 8.03227,-7.2037 17.03227,-15.1901 20.00003,-17.7475 2.96776,-2.5575 32.09593,-31.2918 64.72927,-63.8539 51.89488,-51.7816 70.07217,-70.4415 102.66666,-105.392 4.03334,-4.3249 8.53334,-9.1474 10,-10.7166 1.46667,-1.5692 8.06669,-8.7182 14.66669,-15.8865 6.6,-7.1682 14.4,-15.5975 17.33333,-18.7318 2.9333,-3.1342 8.4255,-9.195 12.2048,-13.4684 3.7793,-4.2733 8.7674,-9.8621 11.0846,-12.4196 2.3173,-2.5574 7.6251,-8.4843 11.7953,-13.1707 4.1701,-4.6863 8.2115,-9.1702 8.9809,-9.9642 2.3481,-2.4227 26.1403,-29.0619 33.9344,-37.9947 4.0333,-4.6225 7.9733,-9.0509 8.7554,-9.8407 0.7822,-0.7898 6.0936,-6.8167 11.8031,-13.393 5.7096,-6.5764 12.5697,-14.3819 15.2446,-17.3456 2.675,-2.9637 7.8636,-8.875 11.5302,-13.1363 3.6667,-4.2614 7.2667,-8.4241 8,-9.2505 8.6864,-9.79 13.0348,-14.77 18.6667,-21.3779 3.6667,-4.3022 9.8841,-11.4436 13.8164,-15.8698 3.9324,-4.426 8.9892,-10.3603 11.2373,-13.1872 l 4.0874,-5.1396 -4.5705,0.9619 c -2.5138,0.5292 -6.3706,1.7857 -8.5706,2.7925 -2.2,1.0068 -6.7,2.6874 -10,3.735 -3.3,1.0474 -10.2,3.4813 -15.3333,5.4087 -5.1334,1.9274 -11.4334,4.1079 -14,4.8454 -2.5667,0.7378 -6.4667,2.1537 -8.6667,3.1467 -2.2,0.9931 -5.76,2.2428 -7.9111,2.7772 -2.1511,0.5347 -5.4511,1.7728 -7.3334,2.7515 -1.8822,0.9786 -4.3222,1.8034 -5.4222,1.8328 -1.1,0.029 -4.4,1.2083 -7.3333,2.6201 -2.9333,1.4119 -6.0443,2.5872 -6.9132,2.6121 -0.8689,0.025 -3.2689,0.7311 -5.3333,1.5697 -6.5493,2.6604 -20.9153,7.8098 -25.7535,9.2312 -2.5667,0.7541 -6.4667,2.1835 -8.6667,3.1766 -2.2,0.9929 -5.76,2.2427 -7.9111,2.7772 -2.1511,0.5346 -5.4511,1.7727 -7.3333,2.7514 -1.8822,0.9787 -4.3222,1.8034 -5.4222,1.8328 -1.1,0.029 -4.4,1.2083 -7.3334,2.6202 -2.9333,1.4118 -6.1162,2.5872 -7.0731,2.612 -0.9569,0.025 -4.2777,1.1971 -7.3796,2.605 -3.1019,1.4081 -7.37903,2.9951 -9.50463,3.5266 -2.1257,0.5317 -5.4049,1.7674 -7.2871,2.7461 -1.8822,0.9787 -4.3222,1.8034 -5.4222,1.8328 -1.1,0.029 -4.4,1.2083 -7.33335,2.6202 -2.93334,1.4118 -6.23334,2.6075 -7.33334,2.657 -1.1,0.049 -4.4,1.2454 -7.33333,2.6572 -2.93333,1.4118 -6.23333,2.6075 -7.33333,2.6571 -1.1,0.049 -4.4,1.2452 -7.33334,2.6571 -2.93333,1.4119 -6.11625,2.5873 -7.07314,2.6121 -0.95691,0.025 -4.27772,1.197 -7.37959,2.605 -3.10188,1.4081 -7.37897,2.9949 -9.50465,3.5265 -2.12568,0.5317 -5.40487,1.7674 -7.28708,2.7462 -1.88222,0.9785 -4.3222,1.8034 -5.4222,1.8327 -1.1,0.029 -4.4,1.2083 -7.33334,2.6202 -2.93333,1.4119 -6.24221,2.5873 -7.35308,2.6121 -1.11085,0.025 -4.17946,1.1985 -6.81913,2.6081 -2.63967,1.4097 -6.98077,2.9709 -9.64692,3.4692 -2.66615,0.4985 -4.84753,1.3666 -4.84753,1.9292 0,0.5627 -2.84203,1.736 -6.3156,2.6076 -3.47359,0.8715 -6.92359,2.0558 -7.66667,2.6315 -0.74309,0.576 -3.13025,1.4722 -5.30481,1.9917 -2.17456,0.5195 -6.39538,2.0529 -9.37959,3.4075 -2.98421,1.3546 -7.20503,2.888 -9.37959,3.4075 -2.17456,0.5194 -4.55374,1.3821 -5.28708,1.9168 -0.73333,0.5347 -3.73333,1.7258 -6.66666,2.6471 -2.93334,0.9212 -5.93334,2.1124 -6.66667,2.647 -0.73333,0.5347 -3.11252,1.3973 -5.28708,1.9168 -2.17456,0.5195 -6.39537,2.0529 -9.37959,3.4075 -2.98421,1.3545 -7.20502,2.8946 -9.37958,3.4225 -2.17456,0.5278 -5.13726,1.7673 -6.58377,2.7542 -1.44649,0.987 -3.45582,1.7947 -4.46516,1.7947 -1.00933,0 -3.72582,0.8543 -6.03665,1.8987 -8.6506,3.9093 -25.1377,10.0583 -26.9689,10.0583 -1.0446,0 -1.8993,0.5231 -1.8993,1.1624 0,0.6395 -1.8,1.5212 -3.9999,1.9596 -2.2,0.4385 -6.6671,2.0077 -9.9269,3.4875 -3.2598,1.4796 -6.2927,2.6903 -6.7398,2.6903 -0.4472,0 -3.3301,1.128 -6.4065,2.5067 -3.0765,1.3787 -7.5435,2.9207 -9.9269,3.4269 -2.3833,0.5062 -4.3333,1.393 -4.3333,1.9707 0,0.5776 -2.85,1.8302 -6.3333,2.7833 -3.4834,0.9533 -7.5334,2.4668 -9,3.3636 -1.4667,0.897 -4.6167,2.0358 -7,2.5309 -2.3834,0.4952 -4.3334,1.3858 -4.3334,1.9792 0,0.5935 -1.6292,1.4865 -3.6204,1.9845 -1.9912,0.4979 -6.1583,2.0574 -9.2602,3.4654 -3.1018,1.4079 -6.0056,2.56 -6.4527,2.56 -0.4471,0 -3.3509,1.152 -6.4527,2.56 -3.1019,1.4079 -7.269,2.9674 -9.2602,3.4653 -1.9913,0.498 -3.6204,1.4385 -3.6204,2.09 0,0.6516 -0.9922,1.1846 -2.2047,1.1846 -1.2126,0 -5.282,1.4504 -9.0431,3.2235 -3.7611,1.7729 -8.469,3.6313 -10.462,4.1296 -1.993,0.4985 -3.6236,1.3615 -3.6236,1.918 0,0.5566 -2.7,1.7652 -6,2.6859 -3.3,0.9207 -6,2.1292 -6,2.6858 0,0.5565 -1.5282,1.394 -3.3961,1.8611 -3.2415,0.8106 -16.691,6.9243 -39.987,18.1766 -5.894,2.8469 -11.444,5.1762 -12.3333,5.1762 -0.8893,0 -1.6169,0.5515 -1.6169,1.2255 0,0.674 -2.2162,1.9543 -4.9249,2.845 -2.7086,0.8908 -5.5586,2.1522 -6.3333,2.8031 -0.7747,0.651 -6.5085,3.7539 -12.7418,6.8954 -25.4922,12.8473 -46.0263,23.8779 -46.4445,24.9491 -0.2444,0.6263 -1.0603,1.1386 -1.8131,1.1386 -1.222,0 -41.1535,22.4413 -50.1629,28.1914 -1.9687,1.2566 -5.2906,3.2463 -7.382,4.4218 -3.0571,1.7185 -19.8552,12.3964 -30.1975,19.1956 -1.1,0.7232 -5,3.2399 -8.6667,5.5929 -3.6666,2.3529 -6.9666,4.5991 -7.3333,4.9914 -0.3667,0.3923 -3.6667,2.7742 -7.3333,5.2928 -9.8952,6.7974 -35.6435,26.0654 -39.514,29.5692 -1.8536,1.678 -7.2213,6.3181 -11.9281,10.3113 -7.4057,6.283 -17.9105,15.7752 -25.0997,22.6802 -14.0217,13.4676 -37.3078,42.7059 -44.9306,56.4156 -5.2994,9.5309 -9.8622,18.7274 -9.8692,19.8916 0,0.7509 -0.9462,3.1579 -2.0927,5.3488 -1.1465,2.1908 -2.9823,7.5715 -4.0796,11.957 -1.0973,4.3855 -2.5412,10.066 -3.2088,12.6234 -0.6675,2.5575 -1.2154,10.3296 -1.2174,17.2713 -0.01,24.8053 10.9301,43.9536 34.4947,60.3911 8.4374,5.8856 29.1837,16.6615 32.1003,16.6735 1.1064,0 3.6785,0.8744 5.7156,1.9331 2.0371,1.0589 7.4371,2.5998 12,3.4241 4.5629,0.8245 9.4961,2.0618 10.9628,2.7496 7.5623,3.5462 70.8548,4.2782 97.4428,1.127 z m 118.5572,-743.2721 c 15.2191,-1.6705 47.6008,-8.7034 54.6667,-11.873 2.2,-0.9868 6.1,-2.2325 8.6666,-2.7684 2.5667,-0.5358 5.8502,-1.7945 7.2967,-2.7972 1.4465,-1.0027 3.4337,-1.8231 4.4159,-1.8231 3.3289,0 57.4738,-26.2899 60.2864,-29.2718 0.3672,-0.3894 3.9677,-2.7714 8.001,-5.2935 4.0334,-2.522 7.9334,-5.059 8.6667,-5.6376 0.7333,-0.5788 4.3333,-2.9683 8,-5.3103 3.6667,-2.3418 7.2667,-4.7214 8,-5.2878 0.7333,-0.5666 8.2333,-6.1272 16.6667,-12.3572 16.4837,-12.1772 21.4951,-16.0366 25.0604,-19.2996 1.2501,-1.1441 6.1729,-5.0301 10.9396,-8.6356 4.7666,-3.6056 8.9666,-6.9059 9.3333,-7.334 0.3667,-0.4283 7.8667,-6.7938 16.66666,-14.1455 8.8,-7.3518 18.1,-15.2106 20.66667,-17.464 13.05749,-11.464 20.55339,-18.1139 33.27045,-29.5156 7.66543,-6.8726 15.22994,-13.6913 16.81002,-15.1527 1.58008,-1.4614 10.00113,-9.2335 18.71345,-17.2713 18.37544,-16.9527 37.88683,-35.4107 58.28167,-55.1351 7.93321,-7.6724 13.99541,-12.75415 13.47154,-11.29275 -0.52385,1.4614 -1.71597,3.5539 -2.64916,4.64995 -7.5276,8.8415 -26.8295,41.4229 -33.05681,55.7994 -2.05732,4.7496 -4.58821,10.5196 -5.6242,12.8221 -1.036,2.3026 -1.88363,4.9025 -1.88363,5.7777 0,0.8753 -0.8867,3.4752 -1.97046,5.7778 -2.20378,4.6821 -5.51038,18.3719 -7.58958,31.4218 -1.6522,10.3699 -0.77966,48.3105 1.16712,50.7503 0.7582,0.9502 1.80648,4.1191 2.32951,7.0419 0.96011,5.3654 2.22623,8.6288 8.50524,21.9212 3.97225,8.4092 16.82847,25.9497 23.997,32.7405 8.11524,7.6877 22.42789,19.0732 23.97668,19.0732 0.79859,0 1.9318,0.76 2.51824,1.6888 0.58644,0.9286 2.56625,2.431 4.39959,3.3382 1.83333,0.9075 6.62145,3.4357 10.64028,5.6185 4.01881,2.1828 7.77534,3.9687 8.34785,3.9687 0.57251,0 3.58439,1.129 6.69302,2.5089 30.13903,13.3779 83.69893,17.6525 120.98553,9.6557 13.5473,-2.9054 27.6621,-6.7907 33.7255,-9.2834 2.049,-0.8423 5.349,-1.9176 7.3333,-2.3895 1.9843,-0.4719 4.2079,-1.3004 4.9412,-1.8409 0.7333,-0.5404 2.8333,-1.4261 4.6667,-1.9682 8.9626,-2.6499 49.6913,-22.7788 68.6667,-33.9366 3.6666,-2.156 7.5666,-4.3409 8.6666,-4.855 1.1,-0.5143 2.6,-1.4317 3.3334,-2.0386 2.1136,-1.7491 25.1266,-16.4095 28.7349,-18.3054 1.7957,-0.9435 3.5651,-2.0743 3.9317,-2.513 0.7023,-0.8401 7.0026,-5.2505 21.2874,-14.9016 4.7414,-3.2034 9.5414,-6.6047 10.6666,-7.5585 1.1254,-0.9539 5.646,-4.3679 10.046,-7.5867 4.4,-3.2189 8.9503,-6.773 10.1119,-7.8979 1.1615,-1.1249 2.52,-2.0453 3.0188,-2.0453 0.7475,0 9.6189,-6.6591 18.0603,-13.5564 1.0216,-0.8348 9.7216,-7.7914 19.3333,-15.4589 9.6116,-7.6676 19.6205,-15.7846 22.242,-18.0377 2.6215,-2.2531 7.1215,-6.0375 10,-8.4098 2.8785,-2.3722 6.1337,-5.0907 7.2337,-6.0411 1.1,-0.9503 7.1,-5.8796 13.3334,-10.9539 6.2333,-5.0741 12.0164,-9.8287 12.8512,-10.5657 0.8348,-0.7369 2.9348,-2.5201 4.6666,-3.9628 1.7319,-1.4425 7.3488,-6.1228 12.4822,-10.4005 5.1333,-4.2777 11.283,-9.3747 13.6661,-11.3269 2.3832,-1.9522 6.6757,-5.6418 9.5392,-8.1993 2.8635,-2.5574 7.8136,-6.7294 11.0004,-9.271 7.3652,-5.8737 20.7967,-19.2812 25.1292,-25.0842 1.8324,-2.4544 4.8317,-6.09025 6.6651,-8.07985 1.8333,-1.9893 7.8333,-9.181 13.3333,-15.9811 5.5,-6.8004 11.5,-13.9819 13.3333,-15.9592 1.8334,-1.9773 7.8334,-9.1623 13.3334,-15.9666 5.5,-6.8044 11.5,-14.0392 13.3333,-16.0771 1.8333,-2.038 3.9509,-4.4856 4.7059,-5.4392 0.7549,-0.9533 4.5049,-5.501 8.3333,-10.1058 3.8284,-4.6049 6.9608,-8.7819 6.9608,-9.2822 0,-0.5003 -8.25,7.2641 -18.3333,17.2542 -28.4516,28.1885 -56.1071,54.3209 -86.8918,82.10665 -6.0718,5.4803 -11.7301,10.6019 -12.574,11.3812 -1.7256,1.5937 -21.7446,18.8716 -32.7668,28.2802 -3.978,3.3957 -9.978,8.6232 -13.3333,11.6168 -5.1227,4.5702 -34.7304,28.7228 -48.7675,39.782 -2.2,1.7333 -8.8,6.9556 -14.6666,11.6051 -10.3628,8.2128 -34.2502,26.2285 -57.2051,43.1439 -6.1975,4.5669 -11.9117,8.3034 -12.6983,8.3034 -0.7865,0 -1.43,0.478 -1.43,1.0625 0,0.5843 -4.95,4.2914 -11,8.2378 -6.05,3.9465 -11.3,7.504 -11.6666,7.9054 -1.0263,1.1236 -13.3356,9.3655 -13.9875,9.3655 -0.3169,0 -5.5159,3.3513 -11.5532,7.4477 -6.0373,4.0962 -11.9105,7.8027 -13.0515,8.2365 -1.141,0.4338 -2.6745,1.2757 -3.4078,1.8709 -2.795,2.2682 -11.9414,7.9895 -14.5786,9.1188 -1.5152,0.6489 -5.1548,2.6683 -8.0881,4.4875 -2.9333,1.8192 -7.1334,4.2088 -9.3334,5.3105 -2.2,1.1015 -4.9,2.613 -6,3.3589 -1.1,0.7458 -3.5,1.9522 -5.3333,2.6805 -1.8333,0.7286 -4.2333,1.9243 -5.3333,2.6572 -1.1,0.733 -3.5,1.9287 -5.3334,2.6571 -1.8333,0.7286 -4.2333,1.887 -5.3333,2.5742 -4.0934,2.5576 -26.3841,12.0423 -28.3013,12.0423 -0.7126,0 -3.1864,0.8557 -5.4972,1.9016 -2.3108,1.0458 -10.2015,3.5575 -17.5348,5.5817 -11.7859,3.2529 -15.5771,3.6761 -32.6667,3.6465 -17.3328,-0.031 -20.3099,-0.3848 -28.7712,-3.4283 -22.3068,-8.0235 -32.1446,-19.198 -35.4199,-40.2326 -0.7952,-5.1064 -1.0725,-12.8789 -0.6164,-17.2726 0.7704,-7.4207 5.584,-23.8469 8.6349,-29.4665 0.7275,-1.3398 3.2734,-6.621 5.6576,-11.7359 2.3843,-5.1149 4.8255,-9.4992 5.425,-9.7427 0.5995,-0.2437 1.09,-1.168 1.09,-2.054 0,-0.8861 2.7,-5.9746 6,-11.3079 3.3,-5.3333 6,-10.2568 6,-10.9413 0,-0.6843 0.9,-1.5884 2,-2.009 1.1,-0.4207 2,-1.3443 2,-2.0526 0,-1.3583 17.3841,-27.7067 20,-30.3132 0.3667,-0.3653 2.7489,-3.6535 5.2939,-7.307 2.5449,-3.6536 5.0979,-7.2407 5.6732,-7.9714 2.8664,-3.6408 12.6859,-16.6628 15.0329,-19.9356 1.4667,-2.0454 3.5667,-4.705 4.6667,-5.9103 1.1,-1.2052 4.9605,-6.0463 8.579,-10.7582 3.6184,-4.7117 7.5184,-9.586 8.6666,-10.8315 1.1483,-1.2457 3.3949,-3.936 4.9926,-5.9786 10.4815,-13.4002 43.6073,-52.57995 59.8151,-70.74665 2.9627,-3.3208 8.6627,-9.903 12.6667,-14.627 4.004,-4.7241 8.18,-9.5369 9.28,-10.6954 1.1,-1.1583 5,-5.6261 8.6667,-9.9285 3.6666,-4.3023 9.6666,-11.1844 13.3333,-15.2936 3.6667,-4.109 9.6667,-10.9817 13.3333,-15.2725 3.6667,-4.2906 8.1667,-9.398 10,-11.3494 1.8334,-1.9514 8.1334,-9.1188 14,-15.9273 5.8667,-6.8085 11.8667,-13.7138 13.3334,-15.3449 6.8545,-7.6234 29.8254,-33.9968 43.1861,-49.583 3.3809,-3.9441 7.0812,-8.129 8.2227,-9.2998 1.1414,-1.1709 5.3414,-5.9775 9.3333,-10.6815 3.9919,-4.7039 8.1579,-9.5359 9.2579,-10.7377 1.1,-1.2018 5.3,-5.9747 9.3333,-10.6065 4.0333,-4.6317 10.0333,-11.4802 13.3333,-15.2188 3.3,-3.7385 9.3,-10.6095 13.3334,-15.2689 4.0333,-4.6593 8.2333,-9.4479 9.3333,-10.6413 1.1,-1.1934 7.6677,-8.7181 14.5949,-16.7214 6.9272,-8.0034 13.5272,-15.5373 14.6667,-16.7422 1.1395,-1.2048 4.1717,-4.7354 6.7384,-7.8457 2.5667,-3.1104 5.3757,-6.3756 6.2423,-7.2559 1.5168,-1.5409 5.7266,-6.3851 18.928,-21.7804 3.3897,-3.953 7.8522,-8.9459 9.9168,-11.0953 2.0646,-2.1494 3.5614,-4.0996 3.3264,-4.3339 -0.407,-0.4055 -6.5455,0.1755 -33.7468,3.1942 -20.7859,2.3066 -77.9203,4.4012 -96.6667,3.5437 -26.5116,-1.2126 -53.6408,-3.4635 -55.9649,-4.6434 -3.9747,-2.0179 -18.5587,-2.7782 -20.0206,-1.0436 -0.7588,0.9004 -3.1588,4.0285 -5.333,6.9513 -2.1744,2.9229 -4.8674,6.2612 -5.9842,7.4186 -1.1169,1.1574 -2.0306,2.6019 -2.0306,3.2099 0,0.6081 -0.9111,2.0526 -2.0247,3.2099 -1.6329,1.6972 -7.8527,9.5981 -16.2987,20.7041 -4.3796,5.7589 -32.4934,42.9057 -42.0553,55.5676 -11.3142,14.9824 -15.9911,19.0219 -11.3595,9.8115 2.8628,-5.693 6.2627,-15.9068 8.2745,-24.8581 0.9033,-4.0188 2.092,-8.2901 2.6416,-9.4915 1.4232,-3.1116 0.2208,-28.5939 -1.676,-35.5207 -3.6115,-13.1888 -16.1946,-28.3051 -27.8353,-33.4388 -2.3833,-1.0511 -4.3333,-2.2882 -4.3333,-2.7492 0,-0.461 -1.8479,-1.2064 -4.1065,-1.6565 -2.2585,-0.4501 -6.0085,-1.7047 -8.3333,-2.7881 -9.8588,-4.5942 -28.5081,-6.6354 -60.2269,-6.5921 -28.1348,0.038 -70.8792,3.1236 -76.66673,5.5337 -1.1,0.458 -8,1.88 -15.3333,3.16 -29.73653,5.19 -37.45405,6.7001 -39.99999,7.8267 -1.46666,0.649 -6.86666,2.0739 -12,3.1664 -5.13333,1.0926 -13.83333,3.186 -19.33333,4.6521 -5.5,1.4661 -14.2,3.7449 -19.33333,5.0639 -5.13334,1.3192 -9.93334,2.7649 -10.66667,3.2129 -0.73333,0.4479 -4.63333,1.5693 -8.66667,2.4921 -4.03333,0.9227 -7.93333,2.119 -8.66666,2.6583 -0.73334,0.5393 -4.63334,1.735 -8.66667,2.6571 -4.03333,0.9221 -7.93333,2.1376 -8.66667,2.7012 -0.73333,0.5636 -4.03333,1.706 -7.33333,2.5386 -3.3,0.8327 -7.2,2.0715 -8.66667,2.753 -1.46666,0.6814 -8.36666,3.0737 -15.33333,5.3162 -6.96667,2.2424 -14.55735,4.948 -16.86817,6.0125 -2.31083,1.0645 -4.92015,1.9354 -5.7985,1.9354 -0.87834,0 -3.48767,0.8452 -5.79849,1.8783 -2.31083,1.033 -6.60151,2.6056 -9.53484,3.4946 -2.93333,0.8889 -5.93333,2.0583 -6.66663,2.5984 -0.7334,0.5403 -3.7334,1.7097 -6.6667,2.5986 -2.9333,0.889 -7.1333,2.4154 -9.3333,3.3921 -2.2,0.9767 -5.8,2.2129 -8,2.7471 -2.2,0.5342 -4.3,1.3572 -4.6667,1.8289 -0.6779,0.8722 -12.8543,5.6735 -21.3333,8.4122 -2.5667,0.829 -4.9667,1.8744 -5.3334,2.3229 -0.3666,0.4486 -3.3666,1.7617 -6.6666,2.9179 -14.1853,4.9699 -19.3607,7.0628 -19.7778,7.9979 -0.2445,0.548 -1.0439,0.9964 -1.7765,0.9964 -1.3207,0 -15.4403,5.8667 -25.8667,10.7478 -2.9815,1.3958 -6.4315,2.5377 -7.6667,2.5377 -1.2351,0 -2.2457,0.5979 -2.2457,1.3286 0,0.7307 -0.5868,1.3286 -1.3041,1.3286 -2.7817,0 -59.4385,27.0079 -87.3625,41.6451 -13.7303,7.1971 -54.4625,30.3309 -55.3334,31.4266 -0.3666,0.4612 -4.2666,2.8698 -8.6666,5.3522 -11.1392,6.2848 -43.3234,28.0497 -56,37.8707 -1.4667,1.1362 -7.4667,5.7763 -13.3334,10.3112 -10.8595,8.3944 -13.6459,10.7272 -27.9192,23.3738 -8.62,7.6375 -28.9909,27.947 -36.8121,36.7011 -12.2971,13.7638 -31.597,40.1921 -38.7948,53.1237 -3.5525,6.3823 -14.4739,28.70305 -14.4739,29.58115 0,0.4406 -1.1258,3.2318 -2.5018,6.2027 -4.8562,10.4851 -11.1281,34.1776 -13.5634,51.2368 -1.4317,10.029 -1.3941,46.584 0.059,57.1279 1.2855,9.3295 5.4917,27.7349 6.8315,29.8925 0.4537,0.7308 1.5968,3.72 2.5402,6.6428 1.7981,5.5703 10.9026,23.7358 15.3151,30.5569 9.8933,15.2934 36.0324,41.9856 50.7223,51.7957 4.3619,2.913 8.2308,5.6469 8.5974,6.0754 0.3667,0.4286 1.5667,1.1865 2.6667,1.6843 1.1,0.4978 5,2.6937 8.6667,4.8795 3.6666,2.1859 7.5666,4.3517 8.6666,4.8129 1.1,0.4611 5.0194,2.213 8.7098,3.8933 3.6904,1.6804 8.4904,3.4804 10.6667,4.0004 2.1763,0.52 4.5569,1.3965 5.2902,1.9478 1.6583,1.2467 15.8192,5.0384 27.3333,7.3188 4.7667,0.9439 10.7667,2.1404 13.3334,2.6586 11.3858,2.2994 51.1356,3.0506 67.3333,1.2727 z m -40,-15.2334 c -13.3103,-1.5927 -28.9491,-6.2064 -39.3001,-11.5939 -32.3966,-16.8619 -42.484,-49.0241 -31.3788,-100.0475 1.1928,-5.4803 2.5317,-10.8609 2.9753,-11.957 0.9463,-2.3381 0.6375,-1.3875 3.5533,-10.936 1.2788,-4.1881 2.8194,-7.919 3.4234,-8.291 0.604,-0.3718 1.4831,-2.2046 1.9537,-4.0727 0.9588,-3.8067 11.3159,-25.005 16.2033,-33.164 1.7508,-2.9228 3.6045,-6.211 4.1194,-7.307 2.2278,-4.7427 19.7138,-30.5569 20.6986,-30.5569 0.5969,0 1.0852,-0.6233 1.0852,-1.3852 0,-2.4806 21.6034,-30.2547 38.163,-49.06375 21.8606,-24.83 66.1394,-69.8048 90.4136,-91.835 4.3505,-3.9483 8.8918,-8.0755 10.0916,-9.1715 1.2,-1.0961 6.2479,-5.58 11.2177,-9.9642 4.9698,-4.3843 10.0285,-8.8971 11.2417,-10.0286 1.2132,-1.1314 7.8545,-6.811 14.7586,-12.6213 6.9041,-5.8102 13.5862,-11.5427 14.8492,-12.7388 11.0514,-10.466 89.09,-70.9755 111.23312,-86.2479 3.64933,-2.5169 7.24933,-5.0472 8,-5.6228 5.36902,-4.1165 18.12639,-12.9034 18.7341,-12.9034 0.40953,0 3.99337,-2.3914 7.96408,-5.3142 3.9707,-2.9228 7.55124,-5.3142 7.95674,-5.3142 0.4055,0 3.6249,-2.0224 7.1542,-4.4942 3.52931,-2.4718 8.17316,-5.4792 10.31966,-6.6832 2.1465,-1.204 5.51353,-3.217 7.48228,-4.4735 9.00937,-5.7501 48.94082,-28.1914 50.1629,-28.1914 0.75276,0 1.56866,-0.4484 1.81311,-0.9965 0.49769,-1.1158 18.20935,-9.9712 32.44444,-16.2214 5.13333,-2.2539 10.83333,-4.9126 12.66667,-5.908 1.83333,-0.9954 5.28333,-2.2254 7.66666,-2.7332 2.38334,-0.5078 4.33334,-1.4008 4.33334,-1.9846 0,-0.5837 2.25,-1.7007 5,-2.4822 7.28157,-2.0691 20.68115,-6.7404 22.99995,-8.0183 1.1,-0.6061 5.3,-1.8706 9.3334,-2.8099 4.0333,-0.9392 7.9333,-2.1597 8.6666,-2.7121 0.73343,-0.5524 4.03343,-1.4392 7.33343,-1.9705 3.3,-0.5313 8.4142,-1.7724 11.365,-2.7579 14.0193,-4.6824 55.6974,-8.6295 74.635,-7.0684 24.3426,2.0067 38.3237,7.045 50.1582,18.0751 9.6893,9.0307 13.4482,18.0314 14.2365,34.0892 0.6417,13.0719 -1.4656,30.6694 -3.8484,32.1367 -0.6671,0.4108 -1.213,1.7003 -1.213,2.8654 0,3.178 -7.6323,19.2507 -16.8997,35.5886 -1.6579,2.9228 -4.0174,7.1078 -5.2434,9.2999 -1.2259,2.1921 -2.6053,4.2846 -3.0652,4.65 -0.4599,0.3654 -3.817,5.1482 -7.4602,10.6285 -5.8196,8.7541 -9.668,14.0965 -18.9784,26.3456 -1.2942,1.7027 -3.1556,3.9543 -4.1365,5.0036 -0.9809,1.0492 -3.9809,4.8083 -6.6667,8.3535 -7.1274,9.4084 -14.6926,18.1768 -39.105,45.3249 -20.8272,23.1611 -29.6448,32.3187 -65.19243,67.7066 -34.09466,33.9416 -79.92725,77.55945 -97.13227,92.43845 -2.50055,2.1623 -7.06886,6.3232 -10.15179,9.246 -3.08295,2.9229 -9.71097,8.9014 -14.72896,13.2856 -5.01799,4.3842 -12.19708,10.6617 -15.95355,13.9498 -3.75645,3.2882 -10.63317,9.2667 -15.28158,13.2856 -4.64842,4.0188 -9.41554,8.2038 -10.59362,9.2998 -1.17808,1.0961 -7.22742,6.1479 -13.443,11.2264 -6.21558,5.0785 -12.32225,10.1602 -13.57037,11.2927 -3.43837,3.1202 -6.19288,5.4032 -15.69595,13.0102 -4.78576,3.8308 -9.57166,7.7029 -10.63526,8.6045 -1.0636,0.9017 -6.7636,5.3631 -12.6667,9.9143 -13.7812,10.6256 -16.3339,12.6117 -19.3262,15.037 -10.6268,8.613 -64.4146,46.4994 -66.0159,46.4994 -0.3415,0 -5.2942,3.1453 -11.0058,6.9893 -5.7117,3.844 -11.8849,7.7349 -13.7182,8.6464 -1.8333,0.9115 -5.4333,2.9489 -8,4.5274 -8.2797,5.0927 -23.075,13.004 -33.3333,17.8245 -5.5,2.5844 -10.9756,5.2166 -12.1679,5.8495 -1.1923,0.6326 -7.1923,3.047 -13.3333,5.365 -6.141,2.318 -13.2655,5.0176 -15.8322,5.999 -2.5666,0.9815 -6.7666,2.17 -9.3333,2.6411 -2.5667,0.4711 -7.279,1.7129 -10.4719,2.7594 -7.0503,2.3109 -38.384,3.4561 -51.5281,1.8832 z m 42.6667,-2.7454 c 9.5333,-1.4966 18.253,-3.2183 19.377,-3.8258 1.1241,-0.6078 4.1241,-1.5476 6.6667,-2.0885 2.5426,-0.5411 7.0229,-2.0066 9.9563,-3.2566 2.9333,-1.2502 9.8333,-3.9841 15.3333,-6.0755 5.5,-2.0915 10.9,-4.5172 12,-5.3908 1.1,-0.8737 3.5,-2.0287 5.3333,-2.5669 1.8334,-0.5381 4.2334,-1.7581 5.3334,-2.7107 1.1,-0.9528 3.6556,-2.1439 5.6792,-2.6472 2.0236,-0.5031 4.0146,-1.4556 4.4245,-2.1164 0.4099,-0.6608 2.6542,-2.084 4.9874,-3.1625 2.3332,-1.0786 7.2422,-3.7571 10.9089,-5.9527 3.6666,-2.1956 7.5666,-4.4127 8.6666,-4.9268 1.1,-0.5144 2.6,-1.4221 3.3334,-2.0174 2.703,-2.1937 11.4777,-7.6873 12.2786,-7.6873 0.7424,0 25.7891,-16.3642 29.0547,-18.9828 1.4117,-1.132 18.277,-13.0421 22.4841,-15.8781 1.3662,-0.9209 4.4484,-3.1691 6.8492,-4.9958 2.4009,-1.8269 5.7099,-4.2183 7.3534,-5.3143 1.6435,-1.0961 4.2613,-3.0337 5.8174,-4.3061 1.5561,-1.2724 5.2292,-4.1214 8.1626,-6.3314 2.9333,-2.2099 6.7068,-5.055 8.3856,-6.3223 1.6788,-1.2673 4.0788,-3.2404 5.3333,-4.3844 1.2546,-1.1442 6.15,-5.0302 10.8787,-8.6356 4.7287,-3.6056 9.5945,-7.4522 10.8128,-8.5483 1.2184,-1.0961 4.49863,-3.7864 7.28944,-5.9785 5.28236,-4.1493 21.52498,-17.5449 24.13163,-19.9023 0.82399,-0.745 4.38789,-3.7461 7.91977,-6.6689 6.48824,-5.3694 26.00458,-22.2305 29.98658,-25.9068 1.18717,-1.0961 5.98657,-5.281 10.66534,-9.2999 8.34807,-7.1708 30.89218,-27.3492 39.33416,-35.2068 2.35518,-2.1921 11.0981,-10.2631 19.42875,-17.93555 52.98781,-48.8011 110.31791,-106.4884 145.16661,-146.0711 3.5722,-4.0575 8.3596,-9.4697 10.6386,-12.0272 8.9728,-10.069 39.7564,-48.8831 43.9914,-55.4672 2.4676,-3.8362 4.9854,-6.9749 5.5952,-6.9749 0.6098,0 1.1088,-0.6377 1.1088,-1.4172 0,-0.7795 1.5,-3.3768 3.3333,-5.7718 1.8333,-2.3951 3.3333,-5.0158 3.3333,-5.8238 0,-0.8081 0.75,-1.9474 1.6667,-2.5317 3.7737,-2.4056 21.8436,-38.9474 25.3628,-51.2896 4.1783,-14.6542 4.5043,-29.9141 0.8832,-41.3464 -4.5627,-14.405 -10.3007,-21.2631 -23.0615,-27.5633 -4.5015,-2.2224 -9.1042,-4.4982 -10.2282,-5.0574 -9.9497,-4.9491 -59.0643,-5.7394 -83.2896,-1.3403 -17.8816,3.2472 -28.1836,5.4639 -30,6.4552 -1.1,0.6003 -5.3,1.86 -9.33343,2.7992 -4.0333,0.9394 -7.9333,2.1584 -8.6666,2.7091 -0.7334,0.5506 -3.4334,1.4367 -6,1.9692 -2.5667,0.5325 -7.18377,2.0962 -10.26021,3.4748 -3.07642,1.3788 -6.37642,2.527 -7.33333,2.5519 -0.95689,0.025 -4.13981,1.2001 -7.07315,2.612 -2.93333,1.4118 -5.93333,2.6059 -6.66666,2.6535 -0.73334,0.048 -4.33334,1.5571 -8,3.3544 -3.66667,1.7972 -7.41667,3.2731 -8.33334,3.2798 -0.91666,0.01 -1.66666,0.5323 -1.66666,1.1681 0,0.6357 -2.7,1.9091 -6,2.8297 -3.3,0.9207 -6,2.0739 -6,2.5629 0,0.4889 -2.25,1.6912 -5,2.6717 -2.75,0.9804 -5.3,2.1468 -5.66667,2.5919 -0.36667,0.445 -7.26667,4.0973 -15.33333,8.1162 -8.06667,4.0188 -15.42022,8.0152 -16.34123,8.8807 -0.92101,0.8655 -3.02101,1.9924 -4.66667,2.504 -1.64565,0.5118 -3.2921,1.3554 -3.65877,1.8748 -0.36667,0.5194 -2.2766,1.784 -4.24428,2.8102 -7.38073,3.8492 -21.40816,12.166 -29.04929,17.2232 -4.3506,2.8793 -8.53932,5.2353 -9.3083,5.2353 -0.76897,0 -1.40946,0.4483 -1.42332,0.9964 -0.0139,0.548 -3.06404,2.7899 -6.7782,4.9821 -3.71416,2.1921 -7.45282,4.5979 -8.30814,5.3462 -0.85532,0.7484 -4.55514,3.267 -8.2218,5.5969 -3.66667,2.3298 -7.617,5.1552 -8.77852,6.2785 -1.16152,1.1233 -2.5164,2.0424 -3.01084,2.0424 -0.77162,0 -27.06094,18.5676 -34.87734,24.6332 -1.4666,1.1381 -6.2666,4.7434 -10.6666,8.0116 -10.4241,7.7428 -13.711,10.2348 -15.7001,11.9033 -0.8983,0.7535 -5.5333,4.2994 -10.2999,7.8796 -4.7667,3.5802 -9.5667,7.3079 -10.6667,8.2837 -1.1,0.9758 -7.4,6.0863 -14,11.3568 -6.6,5.2703 -12.6,10.2261 -13.3333,11.0128 -0.7334,0.7867 -5.5334,4.8079 -10.6667,8.936 -9.6189,7.7353 -13.0429,10.6085 -23.3333,19.5801 -3.3,2.877 -7.5,6.4896 -9.3334,8.028 -2.9599,2.4838 -12.9785,11.3484 -24.6666,21.8255 -24.6773,22.1205 -49.8076,46.6762 -73.3334,71.6564 -21.8699,23.222 -24.2668,25.9299 -40.6666,45.94375 -2.5667,3.1324 -5.2869,6.3608 -6.0449,7.1742 -2.3341,2.5053 -24.6218,32.3823 -24.6218,33.0061 0,0.3228 -3.9,6.4399 -8.6667,13.5937 -4.7666,7.1537 -8.6666,13.8281 -8.6666,14.8321 0,1.0039 -0.5596,1.8253 -1.2435,1.8253 -0.6839,0 -1.6549,1.3452 -2.1577,2.9893 -0.5029,1.6441 -1.6695,3.886 -2.5926,4.9821 -0.9231,1.096 -2.4726,4.2347 -3.4435,6.9749 -0.9708,2.7401 -2.2446,4.9821 -2.8306,4.9821 -0.586,0 -1.0655,0.7079 -1.0655,1.5734 0,0.8653 -1.1653,4.004 -2.5897,6.9749 -3.4072,7.1067 -6.5355,15.6675 -9.0132,24.6656 -1.1067,4.0189 -2.5252,7.9378 -3.1523,8.7089 -1.0122,1.2447 -4.3827,21.6709 -6.2079,37.6221 -0.6158,5.3813 0.2667,11.8226 3.9268,28.6625 2.8418,13.0752 13.9482,27.8709 26.2226,34.9335 3.3809,1.9454 6.4471,3.9522 6.8137,4.4597 0.3667,0.5076 3.2961,1.6269 6.5098,2.4874 3.2138,0.8605 6.8138,2.1511 8,2.8681 2.1438,1.2958 33.9038,5.9782 42.8236,6.3135 2.5666,0.097 12.4666,-1.049 22,-2.5456 z M 1508.0819,998.73755 c 1.4216,-1.2814 7.9848,-7.0331 14.5848,-12.7815 6.6,-5.7485 16.7404,-14.714 22.5343,-19.9236 5.7939,-5.2096 11.1991,-10.0697 12.0116,-10.8004 24.6219,-22.1425 49.3975,-47.1376 61.1924,-61.7347 2.9733,-3.6797 6.2617,-10.6636 6.2617,-13.2986 0,-3.2417 -4.6852,-4.6305 -12.2225,-3.6231 -6.0107,0.8033 -7.4819,2.1181 -21.8224,19.5035 -5.1087,6.1933 -10.1884,12.2785 -11.2884,13.5225 -2.8697,3.2455 -4.8732,5.6491 -15.3333,18.395 -10.6482,12.9751 -12.5083,15.1839 -15.438,18.3314 -1.1576,1.2437 -7.3966,8.8376 -13.8644,16.8754 -6.4678,8.0378 -12.1791,14.913 -12.6916,15.2783 -2.2815,1.6262 -18.6503,22.58555 -17.6388,22.58555 0.6214,0 2.293,-1.0483 3.7146,-2.32975 z m 510.0295,-493.30948 c -3.9721,-0.70557 -7.8721,-1.78886 -8.6667,-2.40731 -0.7945,-0.61846 -3.2446,-1.54222 -5.4446,-2.0528 -8.1023,-1.8804 -21.0688,-12.4778 -25.342,-20.71175 -3.9002,-7.5149 -6.8739,-27.07863 -4.7246,-31.08053 0.8651,-1.61049 1.4355,-3.49289 1.2676,-4.18308 -0.5132,-2.11042 1.6443,-8.82492 5.526,-17.19758 4.8452,-10.45099 18.3364,-26.03774 31.4375,-36.32088 5.7761,-4.53374 11.3801,-8.97756 12.4532,-9.87516 2.1712,-1.81611 2.2689,-1.87547 16.9119,-10.26763 5.7373,-3.28818 11.5745,-6.43869 12.9716,-7.00115 1.397,-0.56245 4.4057,-1.87816 6.6861,-2.92379 12.3457,-5.6611 25.3673,-9.50885 43.4793,-12.84766 9.4547,-1.74292 54.4295,-0.88377 58,1.10797 1.4667,0.81814 5.3667,2.20947 8.6667,3.09184 6.9628,1.86175 19.1267,9.53027 22.4045,14.12467 1.2442,1.74388 3.3215,4.45705 4.6162,6.02927 1.2946,1.57223 2.7234,5.16109 3.1752,7.97524 0.4516,2.81413 1.3422,5.43758 1.9793,5.82986 1.5083,0.9289 1.5125,22.76683 0,23.69551 -0.6345,0.39072 -1.5005,2.84023 -1.9244,5.44331 -0.8948,5.49427 -7.4815,19.41663 -9.922,20.97237 -0.9167,0.58434 -1.6667,1.7128 -1.6667,2.5077 0,2.6614 -20.5426,22.49501 -31.7226,30.62781 -11.9896,8.72165 -15.1394,10.60852 -28.2774,16.94008 -4.7666,2.29716 -10.2592,5.03304 -12.2057,6.07971 -1.9465,1.04668 -4.2557,1.90304 -5.1319,1.90304 -0.876,0 -3.4833,0.88047 -5.7942,1.9566 -2.3108,1.07613 -8.1015,2.90903 -12.8682,4.07312 -4.7666,1.1641 -10.7666,2.7083 -13.3333,3.43157 -6.4823,1.82666 -53.7567,2.64258 -62.5553,1.07965 z m 58.8451,-3.02423 c 19.3892,-3.28075 29.2681,-6.49251 49.7102,-16.16152 26.2555,-12.41866 48.9862,-29.83244 60.6975,-46.49997 2.5497,-3.6287 5.3368,-7.34678 6.1936,-8.2624 0.8567,-0.91563 1.9544,-3.46448 2.4392,-5.6641 0.4849,-2.19964 1.366,-3.99934 1.958,-3.99934 2.1236,0 4.3996,-17.61314 3.7064,-28.68262 -0.8152,-13.02132 -3.8248,-19.95447 -11.8999,-27.41412 -6.8016,-6.28329 -19.4144,-12.24171 -30.4793,-14.39888 -10.7945,-2.10442 -47.0805,-2.17924 -58.6155,-0.1209 -14.236,2.54038 -43.6913,12.91982 -53.3333,18.7935 -1.1,0.6701 -5.2037,3.07414 -9.1195,5.34231 -16.582,9.60514 -41.8762,31.09291 -48.2138,40.95836 -1.1,1.71231 -3.35,4.96717 -5,7.23302 -1.65,2.26587 -3.0038,4.75091 -3.0083,5.52234 0,0.77142 -0.9375,3.17852 -2.0735,5.34909 -2.9802,5.69517 -4.5148,20.53583 -3.201,30.96036 2.4588,19.51257 15.4774,32.07796 38.0552,36.73042 5.7092,1.17643 10.7128,2.47037 11.1193,2.87543 1.4484,1.44325 38.3317,-0.40653 51.0647,-2.561 z"
       id="path176" />
  </g>
</svg>
